<svg xmlns="http://www.w3.org/2000/svg" width="40" height="40"><path d="M13.383 36.441a5.54 5.54 0 0 0 4.176 1.891c2.035 0 3.742-1.422 4.058-3.379.238-1.469-.37-3.394-2.808-4.379a56 56 0 0 1-2.274-.992c-.168-.074-.715-.285-.723-1.023-.003-.22.172-.735.86-.961 1.215-.395 2.316.332 2.683.609l1.434-1.855c-.668-.614-2.566-1.872-4.773-1.141-1.325.437-2.266 1.586-2.45 2.992-.18 1.363.383 2.61 1.536 3.414 0 0 1.394.684 2.921 1.301.356.145 1.508.684 1.36 1.598-.11.652-.82 1.324-1.824 1.324a3.4 3.4 0 0 1-2.497-1.074L13.38 36.44ZM40 38.332h-6.223V25h2.668v10.668H40Zm-7.113-.664-1.664-1.664a4.15 4.15 0 0 0 .445-1.836v-5A4.17 4.17 0 0 0 27.5 25a4.17 4.17 0 0 0-4.168 4.168v5a4.17 4.17 0 0 0 4.168 4.168c.664 0 1.281-.168 1.836-.445L31 39.555ZM26 34.168v-5a1.5 1.5 0 0 1 3 0v5c0 .824-.672 1.5-1.5 1.5s-1.5-.676-1.5-1.5M0 7.5C0 3.36 6.344 0 14.168 0c7.82 0 14.164 3.36 14.164 7.5S21.988 15 14.168 15C6.344 15 0 11.64 0 7.5m14.168 10.832c5.965 0 11.039-1.672 14.164-4.332v3.613c0 2.7-6.059 5.719-14.164 5.719C6.058 23.332 0 20.312 0 17.613V14c3.125 2.66 8.2 4.332 14.168 4.332M0 25.942v-2.899c2.367 1.684 5.855 2.89 10 3.379v4.965c-5.93-.805-10-3.23-10-5.446m10 13.765c-5.434-.762-10-3.039-10-6.73v-1.602c2.367 1.684 5.855 2.895 10 3.383Zm0 0" style="stroke:none;fill-rule:nonzero;fill:#000;fill-opacity:1"/></svg>