<?xml version="1.0" standalone="no"?>
<!DOCTYPE svg PUBLIC "-//W3C//DTD SVG 1.1//EN" "http://www.w3.org/Graphics/SVG/1.1/DTD/svg11.dtd" >
<svg xmlns="http://www.w3.org/2000/svg" xmlns:xlink="http://www.w3.org/1999/xlink" version="1.1">
<metadata>
Created by FontForge 20190801 at Thu Apr 25 09:05:41 2024
 By www-data
Copyright 2011 The Holtwood Project Authors (https://github.com/googlefonts/HoltwoodFont)
</metadata>
<defs>
<font id="HoltwoodOneSCRegular" horiz-adv-x="0" >
  <font-face 
    font-family="HoltwoodOneSCRegular"
    font-weight="400"
    font-stretch="normal"
    units-per-em="2048"
    panose-1="0 0 0 0 0 0 0 0 0 0"
    ascent="1638"
    descent="-410"
    x-height="1408"
    cap-height="1536"
    bbox="-371 -976 4776 2470"
    underline-thickness="102"
    underline-position="-154"
    unicode-range="U+0020-FB02"
  />
<missing-glyph horiz-adv-x="709" 
d="M82 0v1365h544v-1365h-544zM150 68h408v1229h-408v-1229z" />
    <glyph glyph-name="fi" unicode="fi" horiz-adv-x="2292" 
d="M36 0v399l120 23v567l-120 23v396h1163v-512h-167q-43 45 -114 77.5t-160 32.5v-247l256 59v-305l-256 60v-151l120 -26v-396h-842zM1349 0v399l120 23v569l-120 23v394h842v-394l-120 -23v-569l120 -23v-399h-842z" />
    <glyph glyph-name="fl" unicode="fl" horiz-adv-x="2583" 
d="M36 0v399l120 23v567l-120 23v396h1163v-512h-167q-43 45 -114 77.5t-160 32.5v-247l256 59v-305l-256 60v-151l120 -26v-396h-842zM1349 0v399l120 23v569l-120 23v394h842v-394l-121 -23v-607q88 0 151.5 40t104.5 88h167v-512h-1144z" />
    <glyph glyph-name=".notdef" horiz-adv-x="709" 
d="M82 0v1365h544v-1365h-544zM150 68h408v1229h-408v-1229z" />
    <glyph glyph-name=".null" 
 />
    <glyph glyph-name="nonmarkingreturn" horiz-adv-x="682" 
 />
    <glyph glyph-name="space" unicode=" " horiz-adv-x="625" 
 />
    <glyph glyph-name="exclam" unicode="!" horiz-adv-x="879" 
d="M183 512l-129 625v399h769v-399l-128 -625h-512zM119 0v384h640v-384h-640z" />
    <glyph glyph-name="quotedbl" unicode="&#x22;" horiz-adv-x="893" 
d="M564 908l-50 505v123h316v-123l-50 -505h-216zM111 908l-50 505v123h316v-123l-50 -505h-216z" />
    <glyph glyph-name="numbersign" unicode="#" horiz-adv-x="1512" 
d="M120 0l42 256h-106v384h170l43 256h-158v384h222l43 256h384l-43 -256h256l43 256h384l-43 -256h98v-384h-162l-43 -256h153v-384h-217l-42 -256h-384l42 256h-256l-42 -256h-384zM610 640h256l43 256h-256z" />
    <glyph glyph-name="dollar" unicode="$" horiz-adv-x="1435" 
d="M591 -385v349q-157 10 -286 40.5t-238 82.5v407h301q42 -58 103.5 -99t148.5 -41q70 0 99 37.5t29 110.5q-135 12 -259.5 42t-222.5 88.5t-155 156t-57 244.5q0 178 68 290.5t189 171t280 74.5v351h320v-353q263 -27 444 -117v-407h-301q-40 57 -99 98.5t-143 41.5
q-70 0 -101 -42.5t-31 -116.5q153 -5 282.5 -32t225 -87.5t148 -163t52.5 -259.5q0 -159 -62.5 -262.5t-170.5 -161t-244 -80.5v-363h-320z" />
    <glyph glyph-name="percent" unicode="%" horiz-adv-x="3457" 
d="M662 378q-291 0 -449 158.5t-158 453.5q0 290 160.5 437.5t446.5 147.5t447 -147.5t161 -437.5q0 -295 -158.5 -453.5t-449.5 -158.5zM1204 0l384 1536h640l-384 -1536h-640zM662 753q104 0 139 67.5t35 169.5t-35 168t-139 66q-103 0 -138 -65.5t-35 -168.5t35 -170
t138 -67zM2796 -42q-291 0 -449 158.5t-158 453.5q0 290 160.5 437.5t446.5 147.5t447 -147.5t161 -437.5q0 -295 -158.5 -453.5t-449.5 -158.5zM2796 333q104 0 139 67.5t35 169.5t-35 168t-139 66q-103 0 -138 -65.5t-35 -168.5t35 -170t138 -67z" />
    <glyph glyph-name="ampersand" unicode="&#x26;" horiz-adv-x="2935" 
d="M843 -29q-259 0 -457 80t-284 245q-49 92 -49 191q0 150 51 232t154 128q-84 30 -134.5 106.5t-50.5 193.5q0 72 25 120.5t64.5 84t81.5 66.5q192 141 529 141q161 0 296 -36.5t252 -89.5v-320h-301q-13 59 -53.5 98.5t-109.5 39.5q-65 0 -114.5 -38t-49.5 -103
q0 -52 35.5 -83.5t89.5 -31.5h658v541h640v-540h384v-296h-383q-1 -10 -1 -19.5v-19.5v-157q0 -73 59.5 -108t135.5 -35q93 0 159.5 41t112.5 99h301v-406q-142 -59 -310.5 -91.5t-377.5 -32.5q-186 0 -326.5 44.5t-236.5 127.5q-153 -92 -351 -132t-439 -40zM988 361
q146 0 268 27t220 72v239h-658q-61 0 -93 -46.5t-32 -108.5q0 -67 44 -107t112 -58t139 -18z" />
    <glyph glyph-name="quotesingle" unicode="'" horiz-adv-x="440" 
d="M111 908l-50 505v123h316v-123l-50 -505h-216z" />
    <glyph glyph-name="parenleft" unicode="(" horiz-adv-x="1055" 
d="M797 -41q-235 0 -401.5 105.5t-254 288.5t-87.5 415q0 202 64.5 359t180.5 263.5t271 154.5q105 32 227 32q55 0 102 -5t96 -15v-352q-118 -3 -191.5 -62t-107.5 -157t-34 -218q0 -119 34 -217.5t107.5 -158t191.5 -61.5v-352q-49 -10 -96 -15t-102 -5z" />
    <glyph glyph-name="parenright" unicode=")" horiz-adv-x="1055" 
d="M257 -41q-55 0 -102 5t-96 15v352q118 4 191.5 62.5t107.5 156.5t34 218t-34 218t-107.5 157t-191.5 62v352q50 10 96.5 15t101.5 5q236 0 402 -105.5t253.5 -288t87.5 -415.5q0 -201 -64.5 -358.5t-180.5 -264t-271 -154.5q-105 -32 -227 -32z" />
    <glyph glyph-name="asterisk" unicode="*" horiz-adv-x="1225" 
d="M449 349v125l20 178l-128 -124l-97 -76l-196 248l97 76l255 164l-260 156l-98 74l188 253l99 -73l146 -133l-18 197v123h318v-125l-21 -178l129 124l97 76l196 -248l-97 -76l-257 -163l262 -157l98 -74l-188 -253l-99 73l-147 132l19 -196v-123h-318z" />
    <glyph glyph-name="plus" unicode="+" horiz-adv-x="1146" 
d="M444 256v384h-384v256h384v384h256v-384h384v-256h-384v-384h-256z" />
    <glyph glyph-name="comma" unicode="," horiz-adv-x="780" 
d="M200 -452v324q56 3 91.5 35t35.5 93h-255v512h640v-511q0 -154 -64.5 -254.5t-180 -149.5t-267.5 -49z" />
    <glyph glyph-name="hyphen" unicode="-" horiz-adv-x="656" 
d="M71 640v256h512v-256h-512z" />
    <glyph glyph-name="period" unicode="." horiz-adv-x="782" 
d="M73 0v512h640v-512h-640z" />
    <glyph glyph-name="slash" unicode="/" horiz-adv-x="1098" 
d="M37 0l384 1536h640l-384 -1536h-640z" />
    <glyph glyph-name="zero" unicode="0" horiz-adv-x="1780" 
d="M889 -29q-395 0 -615 208.5t-220 606.5q0 256 103 427.5t290.5 258.5t441.5 87q256 0 443.5 -86t290 -258t102.5 -429q0 -398 -221.5 -606.5t-614.5 -208.5zM889 465q84 0 126 45.5t56 119t14 156.5t-14 155t-56 116.5t-126 44.5q-83 0 -125 -44.5t-56 -116.5t-14 -155
t13.5 -156.5t55.5 -119t126 -45.5z" />
    <glyph glyph-name="one" unicode="1" horiz-adv-x="1007" 
d="M64 0v399l128 25v600h-128v434l768 78v-1112l128 -25v-399h-896z" />
    <glyph glyph-name="two" unicode="2" horiz-adv-x="1418" 
d="M70 0v515q68 24 153.5 52.5t172.5 63.5t160 80t118 103t45 132q0 79 -45 123t-123 44q-64 0 -109.5 -45t-70.5 -95h-301v460q112 59 249 92.5t313 33.5q147 0 278.5 -29.5t232.5 -92.5t158.5 -165t57.5 -248q0 -124 -48.5 -222t-131 -171.5t-185.5 -123.5t-212 -78h568
v-429h-1280z" />
    <glyph glyph-name="three" unicode="3" horiz-adv-x="1533" 
d="M756 -29q-208 0 -376.5 32.5t-311.5 91.5v406h301q47 -58 113 -99t159 -41q76 0 135.5 35t59.5 108q0 53 -35.5 84t-89.5 31h-259v296h259q54 0 89.5 31.5t35.5 83.5q0 73 -59.5 108t-135.5 35q-93 0 -159 -40.5t-113 -99.5h-301v400q143 59 311 92.5t377 33.5
q239 0 418.5 -78.5t257.5 -232.5q44 -90 44 -181q0 -116 -51 -192.5t-134 -107.5q80 -34 132.5 -108.5t52.5 -191.5q0 -127 -58 -216.5t-150 -147t-195 -89.5q-135 -43 -317 -43z" />
    <glyph glyph-name="four" unicode="4" horiz-adv-x="1705" 
d="M564 0v399l128 25v168h-640v256l640 688l640 40v-728h320v-256h-320v-168l128 -25v-399h-896zM420 848h272v320z" />
    <glyph glyph-name="five" unicode="5" horiz-adv-x="1454" 
d="M687 -29q-178 0 -330.5 35t-278.5 90v377h299q47 -58 108.5 -99t153.5 -41q102 0 150.5 35t48.5 138q0 96 -58.5 134.5t-154.5 38.5q-112 0 -218 -13.5t-203 -31.5l-126 104v798h1222v-473h-301q-49 44 -117 71.5t-155 27.5h-158l-15 -235q47 20 104 32.5t119 12.5
q124 0 237.5 -25t202 -79.5t140 -141.5t51.5 -210q0 -147 -57 -250.5t-156.5 -168.5t-230 -95.5t-277.5 -30.5z" />
    <glyph glyph-name="six" unicode="6" horiz-adv-x="1652" 
d="M836 -29q-403 0 -591.5 196.5t-188.5 599.5q0 410 205 601t615 191q180 0 326.5 -33.5t261.5 -92.5v-381h-301q-48 46 -117 83.5t-155 37.5q-73 0 -112 -32.5t-55 -88.5t-22 -127q68 6 129.5 8t126.5 2q122 0 237.5 -20.5t208.5 -67.5t147.5 -128t54.5 -203
q0 -162 -58 -267.5t-162.5 -166.5t-244.5 -86t-305 -25zM861 358q91 0 133 33.5t42 124.5q0 83 -41.5 108.5t-123.5 25.5q-113 0 -171 -16q5 -67 16.5 -130.5t44.5 -104.5t100 -41z" />
    <glyph glyph-name="seven" unicode="7" horiz-adv-x="1262" 
d="M165 -1q73 317 176.5 615.5t247.5 537.5q-120 0 -209.5 -38t-157.5 -90h-167v512h1152v-384q-113 -266 -210 -552t-173 -601h-659z" />
    <glyph glyph-name="eight" unicode="8" horiz-adv-x="1561" 
d="M765 -29q-144 0 -273.5 21t-229 72t-157 142t-57.5 230q0 94 42 161t105.5 113.5t129.5 77.5q-88 53 -157.5 134t-69.5 208q0 131 55.5 215t151.5 130.5t219.5 65t258.5 18.5t258.5 -18.5t219.5 -65.5t151.5 -130.5t55.5 -214.5q0 -127 -70 -208t-158 -134
q66 -31 130 -77.5t106 -113.5t42 -161q0 -145 -60.5 -236.5t-166 -141t-241 -68.5t-285.5 -19zM783 923q81 0 123 28t42 109q0 86 -39.5 118t-125.5 32q-85 0 -125 -32t-40 -118q0 -81 42 -109t123 -28zM783 337q89 0 137 27t48 116q0 98 -44.5 135t-140.5 37t-140.5 -37
t-44.5 -135q0 -89 48 -116t137 -27z" />
    <glyph glyph-name="nine" unicode="9" horiz-adv-x="1655" 
d="M779 -29q-177 0 -327 31t-261 95v406h301q47 -58 113 -99t159 -41q77 0 116 35.5t54 96t19 135.5q-62 -13 -125 -16.5t-135 -3.5q-123 0 -238 19t-206.5 65t-145.5 125.5t-54 200.5q0 208 98.5 325.5t272.5 165.5t399 48q400 0 590 -194.5t190 -595.5q0 -412 -203.5 -605
t-616.5 -193zM784 894q111 0 171 16q-5 69 -15.5 137.5t-43 114t-102.5 45.5q-105 0 -140 -40t-35 -147q0 -79 43 -102.5t122 -23.5z" />
    <glyph glyph-name="colon" unicode=":" horiz-adv-x="799" 
d="M80 896v512h640v-512h-640zM80 0v512h640v-512h-640z" />
    <glyph glyph-name="semicolon" unicode=";" horiz-adv-x="798" 
d="M77 896v512h640v-512h-640zM209 -452v324q56 3 91.5 35t35.5 93h-255v512h640v-511q0 -154 -64.5 -254.5t-180 -149.5t-267.5 -49z" />
    <glyph glyph-name="less" unicode="&#x3c;" horiz-adv-x="1145" 
d="M1066 -17l-993 374v690l993 374v-632l-544 -162l544 -163v-481z" />
    <glyph glyph-name="equal" unicode="=" horiz-adv-x="856" 
d="M79 640v256h698v-256h-698zM79 172v256h698v-256h-698z" />
    <glyph glyph-name="greater" unicode="&#x3e;" horiz-adv-x="1143" 
d="M78 -17v481l544 163l-544 162v632l993 -374v-690z" />
    <glyph glyph-name="question" unicode="?" horiz-adv-x="1383" 
d="M241 511v345q69 30 148.5 49.5t152.5 45t121 73.5q29 29 29 63q0 58 -35.5 92.5t-92.5 34.5q-71 0 -124 -31.5t-88 -78.5h-301v346q118 59 263.5 92.5t328.5 33.5q142 0 267 -24.5t220 -80.5t149 -150t54 -234q0 -149 -62 -239.5t-164.5 -140.5t-225.5 -78v-117h-637
q-1 -1 -3 -1zM241 -1v384h640v-384h-640z" />
    <glyph glyph-name="at" unicode="@" horiz-adv-x="1851" 
d="M962 -40q-222 0 -399.5 69t-298.5 194.5t-176 294.5q-35 111 -35 239q0 213 83.5 373t222.5 265.5t305 151.5q108 29 221 29q222 0 400.5 -71.5t302 -198t178.5 -292.5q32 -99 32 -203q0 -211 -103 -339.5t-316 -128.5q-90 0 -177 32t-123 87q-58 -46 -127.5 -74.5
t-160.5 -28.5q-98 0 -170 55.5t-111 144.5t-39 187q0 216 112.5 337.5t326.5 121.5q113 0 210.5 -26t180.5 -61v-519q0 -34 33 -50t69 -16q52 0 80 45.5t38.5 110.5t10.5 123q0 131 -57 227.5t-147 162t-190 100.5q-118 42 -252 42q-166 0 -293.5 -78t-199 -210.5
t-71.5 -297.5q0 -182 85 -306.5t230 -187.5t326 -63q146 0 281.5 21.5t247.5 58.5v-249q-118 -34 -251 -53t-279 -19zM897 557q38 0 68 10.5t60 26.5v420q-40 6 -89 6q-104 0 -146 -57t-42 -167q0 -60 12.5 -115t45 -89.5t91.5 -34.5z" />
    <glyph glyph-name="A" unicode="A" horiz-adv-x="1817" 
d="M77 0v504l123 25l295 1007h826l296 -1007l123 -25v-504h-569l-54 258h-418l-53 -258h-569zM785 601h246l-123 579z" />
    <glyph glyph-name="B" unicode="B" horiz-adv-x="1844" 
d="M45 0v434l158 25v655l-158 25v397h1322q141 -34 227 -114.5t86 -244.5q0 -106 -31 -195t-95 -142.5t-165 -53.5q108 -5 197 -39t142.5 -104t53.5 -184q0 -252 -143 -355.5t-403 -103.5h-1191zM843 893h94q97 0 151 26.5t54 124.5q0 92 -57 114t-148 22h-94v-287zM843 393
h94q97 0 151 26.5t54 125.5q0 92 -57 113.5t-148 21.5h-94v-287z" />
    <glyph glyph-name="C" unicode="C" horiz-adv-x="1621" 
d="M931 -18q-265 0 -458.5 90t-299 269t-105.5 445q0 265 103.5 436t295.5 254t456 83q191 0 343 -34t279 -92v-498h-301q-40 73 -99 125.5t-143 52.5q-104 0 -172.5 -44t-102 -114t-33.5 -148q0 -126 51.5 -199t137 -103.5t188.5 -30.5q119 0 245 29.5t229 68.5v-488
q-142 -48 -291 -75t-323 -27z" />
    <glyph glyph-name="D" unicode="D" horiz-adv-x="1876" 
d="M13 0v434l160 25v655l-160 25v397h1197q189 -40 330 -129.5t219 -241t78 -379.5q0 -225 -75 -376.5t-212 -241.5t-324.5 -129t-412.5 -39h-800zM813 459h98q128 0 200 40.5t81 152.5q2 30 3 63.5t1 70.5q0 118 -21 190t-82 105t-182 33h-98v-655z" />
    <glyph glyph-name="E" unicode="E" horiz-adv-x="1495" 
d="M48 0v434l158 25v616l-158 25v436h1367v-512h-161q-76 53 -176.5 90.5t-231.5 37.5v-273l300 65v-354l-300 65v-271q129 0 229 36.5t173 91.5h167v-512h-1367z" />
    <glyph glyph-name="F" unicode="F" horiz-adv-x="1389" 
d="M46 0v434l158 25v616l-158 25v436h1267v-512h-168q-54 50 -125.5 89t-175.5 39v-273l272 65v-354l-272 65v-196l158 -29v-430h-956z" />
    <glyph glyph-name="G" unicode="G" horiz-adv-x="1658" 
d="M911 -18q-397 0 -620.5 203.5t-223.5 600.5q0 386 216 579.5t599 193.5q206 0 366.5 -32.5t295.5 -96.5v-457h-301q-40 57 -99 98.5t-143 41.5q-90 0 -155.5 -43.5t-101.5 -117.5t-36 -166q0 -162 73.5 -247.5t228.5 -85.5q40 0 76 4.5t70 11.5v121h-192v274h622v-730
q-143 -60 -309.5 -106t-365.5 -46z" />
    <glyph glyph-name="H" unicode="H" horiz-adv-x="2270" 
d="M83 0v434l156 25v616l-156 25v436h944v-436l-148 -25v-189h512v189l-148 25v436h944v-436l-156 -25v-616l156 -25v-434h-944v434l148 25v201h-512v-201l148 -25v-434h-944z" />
    <glyph glyph-name="I" unicode="I" horiz-adv-x="1052" 
d="M48 0v434l158 25v618l-158 25v434h956v-434l-158 -25v-618l158 -25v-434h-956z" />
    <glyph glyph-name="J" unicode="J" horiz-adv-x="1492" 
d="M616 -18q-178 0 -320 28t-252 89v464h301q29 -54 76 -97t116 -43q51 0 83.5 32t47.5 82t15 103v437l-158 25v434h956v-434l-158 -25v-437q0 -338 -184.5 -498t-522.5 -160z" />
    <glyph glyph-name="K" unicode="K" horiz-adv-x="1994" 
d="M46 0v434l158 25v618l-158 25v434h798v-616l283 616h793v-246q-139 -101 -255 -231t-212 -273q106 -145 218.5 -293t246.5 -266v-227h-791l-283 641v-641h-798z" />
    <glyph glyph-name="L" unicode="L" horiz-adv-x="1372" 
d="M46 0v434l158 25v618l-158 25v434h946v-434l-148 -25v-693q97 0 167 39.5t118 88.5h167v-512h-1250z" />
    <glyph glyph-name="M" unicode="M" horiz-adv-x="2332" 
d="M48 0v434l158 25v618l-158 25v434h797l322 -590l319 590h798v-434l-158 -25v-618l158 -25v-434h-798v749l-319 -552l-322 552v-749h-797z" />
    <glyph glyph-name="N" unicode="N" horiz-adv-x="2006" 
d="M81 0v434l156 25v618l-156 25v434h796l512 -787v326l-128 27v434h668v-434l-156 -25v-1077h-641l-511 749v-290l128 -24v-435h-668z" />
    <glyph glyph-name="O" unicode="O" horiz-adv-x="1928" 
d="M963 -18q-277 0 -478 85.5t-309 263.5t-108 455q0 267 112.5 438t314.5 253t468 82q267 0 469 -82t315 -253t113 -438q0 -275 -110 -453.5t-311.5 -264.5t-475.5 -86zM963 465q148 0 202.5 88t54.5 233q0 146 -55 231t-202 85t-201 -85t-54 -231q0 -145 53.5 -233
t201.5 -88z" />
    <glyph glyph-name="P" unicode="P" horiz-adv-x="1783" 
d="M34 0v434l158 25v618l-158 25v434h901q161 0 304.5 -15t253.5 -62t172.5 -141t62.5 -253q0 -133 -49 -220.5t-135.5 -139t-200 -76t-244.5 -32t-267 -7.5v-131l158 -25v-434h-956zM832 865q119 0 187.5 34t68.5 154q0 79 -31.5 118.5t-88.5 52.5t-136 13v-372z" />
    <glyph glyph-name="Q" unicode="Q" horiz-adv-x="1928" 
d="M900 -459q-163 180 -237 452q-274 65 -434.5 259.5t-160.5 533.5q0 267 113 438t314.5 253t467.5 82t468 -82t315.5 -253t113.5 -438q0 -325 -146.5 -514.5t-396.5 -264.5q42 -52 90.5 -109.5t88.5 -105.5v-251h-596zM963 465q148 0 202.5 88t54.5 233q0 146 -55 231
t-202 85t-201 -85t-54 -231q0 -145 53.5 -233t201.5 -88z" />
    <glyph glyph-name="R" unicode="R" horiz-adv-x="1807" 
d="M40 0v434l158 25v618l-158 25v434h901q165 0 309 -14.5t252.5 -62t169.5 -144t61 -260.5q0 -121 -38.5 -197.5t-107 -123.5t-158.5 -83q77 -124 158 -227.5t146 -172.5v-251h-636q-154 271 -224 549h-35v-549h-798zM838 844q77 0 134.5 11.5t89.5 49t32 114.5t-32 114.5
t-89.5 50t-134.5 12.5v-352z" />
    <glyph glyph-name="S" unicode="S" horiz-adv-x="1444" 
d="M702 -18q-186 0 -343.5 24.5t-288.5 92.5v395h301q42 -58 103.5 -99t148.5 -41q70 0 99 37.5t29 110.5q-135 12 -259.5 42t-222.5 88.5t-155 156t-57 244.5q0 197 87.5 310t241 161t350.5 48q195 0 345 -30t277 -89v-390h-301q-40 57 -99 98.5t-143 41.5
q-70 0 -101 -42.5t-31 -116.5q153 -5 282.5 -32t225 -87.5t148 -163t52.5 -259.5q0 -143 -53 -239.5t-147 -153.5t-219 -82t-270 -25z" />
    <glyph glyph-name="T" unicode="T" horiz-adv-x="1564" 
d="M304 0v434l158 25v693q-79 0 -130 -41.5t-86 -86.5h-168v512h1408v-512h-168q-34 45 -85.5 86.5t-130.5 41.5v-693l158 -25v-434h-956z" />
    <glyph glyph-name="U" unicode="U" horiz-adv-x="1975" 
d="M1041 -18q-268 0 -455 76.5t-285 242t-98 433.5v343l-158 25v434h891v-434l-158 -25v-323q0 -145 54 -217t202 -72t202 72t54 217v323l-158 25v434h798v-434l-158 -25v-343q0 -371 -183 -561.5t-548 -190.5z" />
    <glyph glyph-name="V" unicode="V" horiz-adv-x="1987" 
d="M638 -1l-409 1079l-182 24v434h964v-434l-110 -24l173 -569l173 569l-110 24v434h803v-434l-181 -24l-409 -1079h-712z" />
    <glyph glyph-name="W" unicode="W" horiz-adv-x="3084" 
d="M638 -1l-409 1079l-182 24v434h1001v-434l-110 -24l173 -569l173 569l-110 24v434h971v-434l-110 -24l173 -569l173 569l-110 24v434h766v-434l-181 -24l-409 -1079h-712l-193 588l-192 -588h-712z" />
    <glyph glyph-name="X" unicode="X" horiz-adv-x="2060" 
d="M56 0v434l181 24l369 330l-359 290l-212 24v434h1008v-434l-110 -24l259 -188l173 188l-187 24v434h800v-434l-211 -24l-299 -310l379 -310l182 -24v-434h-1044v434l110 24l-233 178l-193 -178l190 -24v-434h-803z" />
    <glyph glyph-name="Y" unicode="Y" horiz-adv-x="2067" 
d="M550 0v432l128 32l-439 614l-182 24v434h874v-434l-100 -24l203 -314l203 314l-100 24v434h883v-434l-191 -24l-439 -614l128 -32v-432h-968z" />
    <glyph glyph-name="Z" unicode="Z" horiz-adv-x="1393" 
d="M70 0v384l564 768q-112 0 -194.5 -38.5t-143.5 -89.5h-168v512h1190v-414l-504 -720q26 -3 49 -3q95 0 165.5 34.5t121.5 78.5h168v-512h-1248z" />
    <glyph glyph-name="bracketleft" unicode="[" horiz-adv-x="1170" 
d="M81 0v1536h1025v-385q-82 28 -178 48t-207 20v-903q110 0 208 21t177 47v-384h-1025z" />
    <glyph glyph-name="backslash" unicode="\" horiz-adv-x="1095" 
d="M420 0l-384 1536h640l384 -1536h-640z" />
    <glyph glyph-name="bracketright" unicode="]" horiz-adv-x="1171" 
d="M64 0v384q80 -26 177 -47t208 -21v903q-111 0 -208 -21t-177 -47v385h1025v-1536h-1025z" />
    <glyph glyph-name="asciicircum" unicode="^" horiz-adv-x="1492" 
d="M43 201l409 1079h590l409 -1079h-512l-192 640l-192 -640h-512z" />
    <glyph glyph-name="underscore" unicode="_" horiz-adv-x="841" 
d="M72 -32v256h698v-256h-698z" />
    <glyph glyph-name="grave" unicode="`" horiz-adv-x="996" 
d="M487 1558l-404 640h490l339 -640h-425z" />
    <glyph glyph-name="a" unicode="a" horiz-adv-x="1671" 
d="M50 0v464l116 23l277 921h776l279 -921l115 -23v-464h-535l-50 237h-393l-50 -237h-535zM696 553h271l-136 553z" />
    <glyph glyph-name="b" unicode="b" horiz-adv-x="1708" 
d="M64 0v399l120 23v603l-120 23v360h1214q131 -31 213 -103t82 -222q0 -52 -10.5 -113t-39.5 -115.5t-83 -91t-141 -40.5q100 -5 184 -35.5t135 -94.5t51 -171q0 -156 -61.5 -248.5t-176.5 -133t-276 -40.5h-1091zM786 822h88q93 0 143 26.5t50 121.5q0 90 -52 113t-141 23
h-88v-284zM786 342h88q93 0 143 27t50 122q0 90 -52 112.5t-141 22.5h-88v-284z" />
    <glyph glyph-name="c" unicode="c" horiz-adv-x="1497" 
d="M845 -18q-248 0 -430.5 81.5t-281.5 246t-99 413.5t97.5 409t278 237t428.5 77q179 0 322.5 -31.5t261.5 -84.5v-435h-283q-38 53 -92.5 91t-134.5 38q-126 0 -200.5 -86.5t-74.5 -214.5q0 -155 79 -229.5t232 -74.5q127 0 241.5 27t232.5 62v-435q-298 -91 -577 -91z
" />
    <glyph glyph-name="d" unicode="d" horiz-adv-x="1779" 
d="M64 0v399l120 23v603l-120 23v360h1095q175 -37 307.5 -117.5t207 -218t74.5 -349.5q0 -209 -71 -348.5t-200.5 -222t-305.5 -117.5t-385 -35h-722zM786 422h92q110 0 168 29t79 95t21 177q0 109 -21 175t-78.5 96.5t-168.5 30.5h-92v-603z" />
    <glyph glyph-name="e" unicode="e" horiz-adv-x="1378" 
d="M66 0v399l120 23v567l-120 23v396h1236v-512h-137q-67 50 -164 80t-213 30v-217l277 59v-285l-277 60v-221q117 0 214.5 29t162.5 81h137v-512h-1236z" />
    <glyph glyph-name="f" unicode="f" horiz-adv-x="1291" 
d="M66 0v399l120 23v567l-120 23v396h1163v-512h-167q-43 45 -114 77.5t-160 32.5v-247l256 59v-305l-256 60v-151l120 -26v-396h-842z" />
    <glyph glyph-name="g" unicode="g" horiz-adv-x="1525" 
d="M827 -18q-369 0 -581 185.5t-212 555.5q0 249 97.5 409t278 237t428.5 77q179 0 322.5 -31.5t261.5 -84.5v-435h-283q-38 56 -86.5 92.5t-140.5 36.5q-136 0 -205.5 -81t-69.5 -220q0 -163 61.5 -243.5t221.5 -80.5q45 0 82.5 6t75.5 18v114h-201v246h585v-664
q-136 -57 -291 -97t-344 -40z" />
    <glyph glyph-name="h" unicode="h" horiz-adv-x="2061" 
d="M66 0v399l120 23v567l-120 23v396h842v-396l-120 -23v-165h481v165l-120 23v401h842v-401l-120 -23v-567l120 -23v-399h-842v399l120 23v167h-481v-167l120 -23v-399h-842z" />
    <glyph glyph-name="i" unicode="i" horiz-adv-x="978" 
d="M66 0v399l120 23v569l-120 23v394h842v-394l-120 -23v-569l120 -23v-399h-842z" />
    <glyph glyph-name="j" unicode="j" horiz-adv-x="1404" 
d="M589 -18q-173 0 -301.5 25t-236.5 80v431h283q27 -49 71.5 -89t108.5 -40q71 0 104.5 63t33.5 137v402l-121 23v394h843v-394l-121 -23v-402q0 -317 -173.5 -462t-490.5 -145z" />
    <glyph glyph-name="k" unicode="k" horiz-adv-x="1783" 
d="M66 0v399l120 23v569l-120 23v394h722v-562l266 562h648v-254q-105 -89 -192 -199.5t-160 -229.5q86 -136 178.5 -271.5t200.5 -249.5v-204h-675l-266 590v-590h-722z" />
    <glyph glyph-name="l" unicode="l" horiz-adv-x="1269" 
d="M66 0v399l120 23v569l-120 23v394h842v-394l-121 -23v-607q88 0 151.5 40t104.5 88h167v-512h-1144z" />
    <glyph glyph-name="m" unicode="m" horiz-adv-x="2181" 
d="M66 0v399l120 23v569l-120 23v394h721l303 -538l300 538h721v-394l-120 -23v-569l120 -23v-399h-721v689l-300 -508l-303 508v-689h-721z" />
    <glyph glyph-name="n" unicode="n" horiz-adv-x="1820" 
d="M66 0v399l120 23v569l-120 23v394h722l481 -759v340l-120 25v394h601v-394l-120 -23v-569l120 -23v-399h-722l-481 739v-317l121 -22v-400h-602z" />
    <glyph glyph-name="o" unicode="o" horiz-adv-x="1749" 
d="M875 -18q-256 0 -445 78t-292.5 242t-103.5 421q0 252 106 411.5t295.5 235.5t439.5 76t440 -76t296.5 -235.5t106.5 -411.5q0 -257 -103 -421t-292 -242t-448 -78zM875 418q140 0 191 84t51 221t-51.5 217t-190.5 80q-136 0 -187.5 -78t-51.5 -214q0 -139 48.5 -224.5
t190.5 -85.5z" />
    <glyph glyph-name="p" unicode="p" horiz-adv-x="1667" 
d="M66 0v399l120 23v569l-120 23v394h819q149 0 283 -12.5t238 -54.5t164 -128t60 -233q0 -155 -71 -243.5t-191.5 -130t-271 -52.5t-308.5 -11v-121l120 -23v-399h-842zM788 796q118 0 179.5 37t61.5 156q0 114 -64 146.5t-177 32.5v-372z" />
    <glyph glyph-name="q" unicode="q" horiz-adv-x="1749" 
d="M907 -407q-93 77 -176.5 174.5t-127.5 223.5q-259 58 -414 236t-155 496q0 252 106 411.5t295.5 235.5t439.5 76t440 -76t296.5 -235.5t106.5 -411.5q0 -297 -135 -470t-362 -243q36 -45 79.5 -95t79.5 -91v-231h-473zM875 418q140 0 191 84t51 221q0 134 -48.5 215.5
t-183.5 81.5h-20q-133 0 -181 -80.5t-48 -211.5q0 -139 48.5 -224.5t190.5 -85.5z" />
    <glyph glyph-name="r" unicode="r" horiz-adv-x="1691" 
d="M66 0v399l120 23v569l-120 23v394h819q130 0 253 -9t225 -40t169.5 -94t86.5 -171q10 -56 10 -123q0 -113 -36.5 -183t-100.5 -113t-149 -76q50 -99 133 -193.5t153 -174.5v-231h-598q-61 114 -118.5 238.5t-91.5 266.5h-33v-505h-722zM788 776q115 0 178 33t63 148
t-63.5 149t-177.5 34v-364z" />
    <glyph glyph-name="s" unicode="s" horiz-adv-x="1336" 
d="M647 -18q-180 0 -315.5 24t-248.5 81v347h283q33 -52 83.5 -90t123.5 -38q71 0 95.5 45t24.5 121q-124 11 -241 37t-209.5 78t-147 140t-54.5 223q0 186 82.5 294.5t227 155t328.5 46.5q175 0 312.5 -31.5t252.5 -84.5v-350h-303q-28 54 -73 96t-114 42q-73 0 -99 -54
t-26 -132q141 -5 262 -28.5t212 -77t141.5 -146.5t50.5 -237q0 -181 -86 -281t-232.5 -140t-329.5 -40z" />
    <glyph glyph-name="t" unicode="t" horiz-adv-x="1485" 
d="M319 0v399l120 23v614q-49 0 -98.5 -16t-82.5 -47t-33 -77h-167v512h1364v-512h-167q0 46 -33.5 77t-82.5 47t-98 16v-614l120 -23v-399h-842z" />
    <glyph glyph-name="u" unicode="u" horiz-adv-x="1824" 
d="M952 -18q-371 0 -576 183.5t-205 557.5v268l-120 23v394h781v-394l-120 -23v-167q0 -21 0.5 -42t0.5 -40v-21q0 -135 51.5 -214t187.5 -79q137 0 189.5 79.5t52.5 215.5v23q0 18 -0.5 38.5t-0.5 41.5v165l-120 23v394h694v-394l-121 -23q-1 -15 -1 -29.5v-28.5v-210
q0 -352 -173 -546.5t-520 -194.5z" />
    <glyph glyph-name="v" unicode="v" horiz-adv-x="1834" 
d="M569 -1l-374 993l-143 22v394h878v-394l-103 -22l162 -544l163 544l-104 22v394h727v-394l-142 -22l-374 -993h-690z" />
    <glyph glyph-name="w" unicode="w" horiz-adv-x="2865" 
d="M579 -1l-384 993l-143 22v394h913v-394l-104 -22l163 -524l163 524l-104 22v394h913v-394l-103 -22l162 -524l163 524l-104 22v399h692v-399l-142 -22l-384 -993h-669l-182 541l-180 -541h-670z" />
    <glyph glyph-name="x" unicode="x" horiz-adv-x="1935" 
d="M80 0v399l142 22l347 304l-338 267l-171 22v394h925v-394l-103 -22l237 -173l163 173l-179 22v394h727v-394l-170 -22l-281 -285l356 -286l143 -22v-399h-953v399l103 22l-219 164l-181 -164l178 -22v-399h-726z" />
    <glyph glyph-name="y" unicode="y" horiz-adv-x="1911" 
d="M499 0v397l120 30l-413 565l-152 22v394h803v-394l-94 -22l191 -289l190 289l-94 22v394h802v-394l-151 -22l-413 -565l121 -30v-397h-910z" />
    <glyph glyph-name="z" unicode="z" horiz-adv-x="1261" 
d="M46 0v352l517 703q-102 0 -178.5 -34.5t-131.5 -82.5h-154v470h1090v-380l-461 -660q23 -3 44 -3q87 0 151.5 32t111.5 72h154v-469h-1143z" />
    <glyph glyph-name="braceleft" unicode="{" horiz-adv-x="1013" 
d="M705 -41q-114 0 -180 40.5t-101.5 108.5t-57 153t-45.5 174q-26 95 -86 157.5t-182 62.5v369q96 0 151 37.5t84 100t46 136.5t36.5 148t55 136.5t101.5 100t178 37.5q67 0 129.5 -5t123.5 -15v-352q-101 0 -147.5 -42.5t-62.5 -114.5t-25 -163q-7 -73 -37.5 -122.5
t-96.5 -66.5q62 -15 88.5 -57.5t34.5 -100.5t14 -118.5t25 -113.5t66.5 -85.5t140.5 -32.5v-352q-62 -10 -124 -15t-129 -5z" />
    <glyph glyph-name="bar" unicode="|" horiz-adv-x="671" 
d="M78 -128v1792h513v-1792h-513z" />
    <glyph glyph-name="braceright" unicode="}" horiz-adv-x="1012" 
d="M306 -41q-67 0 -129 5t-124 15v352q102 0 148 42t61.5 114.5t25.5 163.5q8 72 38 122t96 66q-61 15 -87.5 58t-35 100.5t-15 118.5t-25.5 113.5t-66 85.5t-140 33v352q62 10 124 15t129 5q104 0 166.5 -33t97.5 -89.5t55.5 -127t39.5 -147t51 -148.5q29 -68 86.5 -109.5
t155.5 -41.5v-369q-96 0 -151 -37.5t-84.5 -100t-47.5 -136.5t-38 -148t-55.5 -136.5t-100.5 -100t-175 -37.5z" />
    <glyph glyph-name="asciitilde" unicode="~" horiz-adv-x="1015" 
d="M60 652l62 426q32 35 71.5 55t98.5 20q56 0 102 -17.5t89.5 -40t90 -40t103.5 -17.5q93 0 157 34t122 87l-60 -417q-26 -37 -65.5 -59t-95.5 -22q-74 0 -135 24t-121.5 48t-135.5 24q-91 0 -157 -28.5t-126 -76.5z" />
    <glyph glyph-name="uni00A0" unicode="&#xa0;" horiz-adv-x="625" 
 />
    <glyph glyph-name="exclamdown" unicode="&#xa1;" horiz-adv-x="867" 
d="M112 1152v384h640v-384h-640zM112 0l-65 399l129 625h512l128 -625v-399h-704z" />
    <glyph glyph-name="cent" unicode="&#xa2;" horiz-adv-x="1505" 
d="M665 -258v237q-186 32 -324 124.5t-214.5 247t-76.5 372.5q0 328 164 501t451 213v227h385v-226q112 -13 210 -38t178 -66v-439h-283q-38 53 -92.5 91t-134.5 38q-126 0 -200.5 -86.5t-74.5 -214.5q0 -155 79 -229.5t232 -74.5q125 0 242.5 27t231.5 62v-443
q-198 -66 -388 -90v-233h-385z" />
    <glyph glyph-name="sterling" unicode="&#xa3;" horiz-adv-x="1418" 
d="M70 0v434q29 45 67 88t72 84h-139v226h147q-140 176 -140 332q0 126 68.5 206.5t181 125.5t247 62.5t265.5 17.5q160 0 287 -33.5t224 -92.5v-477h-300q-15 65 -62.5 102.5t-125.5 37.5q-57 0 -103 -38t-46 -95q0 -44 17.5 -81t39.5 -67h324v-226h-326l-60 -262
q144 0 265.5 36t209.5 92h167v-472h-1280z" />
    <glyph glyph-name="currency" unicode="&#xa4;" horiz-adv-x="1256" 
d="M221 372l-181 181l142 142q-29 53 -46.5 119t-17.5 146t17.5 146t46.5 118l-142 143l181 181l144 -145q53 29 119 47.5t144 18.5q77 0 143 -18t120 -47l144 144l181 -181l-141 -141q31 -52 49 -118t18 -148q0 -83 -18 -148.5t-48 -119.5l140 -139l-181 -181l-141 141
q-55 -30 -120.5 -48.5t-145.5 -18.5q-78 0 -145 19t-120 49zM629 718q102 0 162 66t60 170t-61 169t-162 65q-100 0 -159.5 -65.5t-59.5 -168.5q0 -104 59.5 -170t160.5 -66z" />
    <glyph glyph-name="yen" unicode="&#xa5;" horiz-adv-x="2021" 
d="M654 0v128h-412v256h412v128h-412v256h214l-241 310l-162 24v434h854v-434l-100 -24l203 -310l203 310l-100 24v434h853v-434l-161 -24l-242 -310h215v-256h-412v-128h412v-256h-412v-128h-712z" />
    <glyph glyph-name="brokenbar" unicode="&#xa6;" horiz-adv-x="670" 
d="M78 896v768h513v-768h-513zM78 -128v832h513v-832h-513z" />
    <glyph glyph-name="section" unicode="&#xa7;" horiz-adv-x="1133" 
d="M558 -41q-281 0 -469 93v284h226q30 -45 74 -78t109 -33q59 0 79.5 44t20.5 106q-103 3 -199 17t-171.5 49t-120 99t-44.5 167q0 89 26 149.5t71 105.5q-42 35 -69.5 87t-27.5 126q0 151 66 238.5t182 125t264 37.5q143 0 259.5 -24t209.5 -69v-284h-226q-30 45 -74 78
t-109 33q-58 0 -79 -44t-21 -106q103 -4 199 -17.5t171.5 -48t120 -98.5t44.5 -168q0 -89 -26.5 -150t-71.5 -106q42 -35 70 -86.5t28 -125.5q0 -150 -65.5 -238t-181 -125.5t-265.5 -37.5zM622 660q39 11 70 40t31 76q0 41 -47.5 57t-93.5 20l-70 6q-34 -11 -64.5 -41.5
t-30.5 -74.5q0 -27 24.5 -42t60 -22t66.5 -12z" />
    <glyph glyph-name="dieresis" unicode="&#xa8;" horiz-adv-x="1346" 
d="M833 1562v384h425v-384h-425zM89 1562v384h425v-384h-425z" />
    <glyph glyph-name="copyright" unicode="&#xa9;" horiz-adv-x="1722" 
d="M861 -41q-208 0 -366.5 80.5t-262.5 215t-150 297.5q-29 105 -29 215q0 209 80.5 367t215 262t297.5 150q105 29 215 29q208 0 366.5 -80.5t262.5 -215t150 -297.5q29 -105 29 -215q0 -208 -80.5 -366.5t-215.5 -262.5t-298 -150q-105 -29 -214 -29zM861 105
q171 0 300.5 65.5t215.5 176t123 244.5q23 86 23 176q0 171 -65.5 300.5t-176 215.5t-244.5 123q-87 23 -176 23q-170 0 -300 -65.5t-215.5 -176t-122.5 -244.5q-24 -85 -24 -176q0 -170 65.5 -300t176 -215.5t244.5 -122.5q84 -24 176 -24zM877 318q-220 0 -351 114.5
t-131 336.5t128 326.5t349 104.5q106 0 191.5 -18.5t155.5 -50.5v-261h-168q-22 32 -55 54.5t-80 22.5q-74 0 -118.5 -51t-44.5 -127q0 -181 184 -181q73 0 144.5 16.5t137.5 36.5v-263q-77 -25 -162 -42.5t-180 -17.5z" />
    <glyph glyph-name="ordfeminine" unicode="&#xaa;" horiz-adv-x="1283" 
d="M457 512q-127 0 -216.5 65t-137 172t-47.5 231q0 271 151 413t420 142q157 0 303.5 -31t277.5 -74v-886h-442v96q-67 -51 -140.5 -89.5t-168.5 -38.5zM766 796v507q-27 7 -69 7q-106 0 -139 -76.5t-33 -194.5q0 -136 54 -189.5t187 -53.5z" />
    <glyph glyph-name="guillemotleft" unicode="&#xab;" horiz-adv-x="1779" 
d="M1700 -17l-733 374v690l733 374v-632l-334 -162l334 -163v-481zM806 -17l-733 374v690l733 374v-632l-334 -162l334 -163v-481z" />
    <glyph glyph-name="logicalnot" unicode="&#xac;" horiz-adv-x="917" 
d="M583 256v256h-512v384h768v-640h-256z" />
    <glyph glyph-name="registered" unicode="&#xae;" horiz-adv-x="1722" 
d="M861 -41q-208 0 -366.5 80.5t-262.5 215t-150 297.5q-29 105 -29 215q0 209 80.5 367t215 262t297.5 150q105 29 215 29q208 0 366.5 -80.5t262.5 -215t150 -297.5q29 -105 29 -215q0 -208 -80.5 -366.5t-215.5 -262.5t-298 -150q-105 -29 -214 -29zM861 105
q171 0 300.5 65.5t215.5 176t123 244.5q23 86 23 176q0 171 -65.5 300.5t-176 215.5t-244.5 123q-87 23 -176 23q-170 0 -300 -65.5t-215.5 -176t-122.5 -244.5q-24 -85 -24 -176q0 -170 65.5 -300t176 -215.5t244.5 -122.5q84 -24 176 -24zM429 371v238l71 14v339l-71 14
v238h478q124 0 222.5 -17t155.5 -73t57 -174q0 -100 -46 -146t-121 -75q27 -60 76.5 -116.5t90.5 -104.5v-137h-349q-34 65 -69 142.5t-55 158.5h-18v-301h-422zM851 834q63 0 101.5 16t38.5 80q0 62 -39 80t-101 18v-194z" />
    <glyph glyph-name="macron" unicode="&#xaf;" horiz-adv-x="633" 
d="M60 1556v216h512v-216h-512z" />
    <glyph glyph-name="degree" unicode="&#xb0;" horiz-adv-x="917" 
d="M457 800q-117 0 -207.5 47.5t-142 135.5t-51.5 207t51.5 205.5t142 133.5t207.5 47q118 0 208.5 -47t142.5 -133.5t52 -205.5q0 -120 -51.5 -207.5t-142 -135t-209.5 -47.5zM458 988q82 0 127.5 56.5t45.5 140.5q0 83 -46.5 139t-127.5 56t-126.5 -56t-45.5 -139
q0 -85 45.5 -141t127.5 -56z" />
    <glyph glyph-name="plusminus" unicode="&#xb1;" horiz-adv-x="1143" 
d="M443 384v384h-384v256h384v384h256v-384h384v-256h-384v-384h-256zM184 0v256h768v-256h-768z" />
    <glyph glyph-name="uni00B2" unicode="&#xb2;" horiz-adv-x="1015" 
d="M75 512v348q74 27 153.5 52.5t148.5 61.5t111 95q26 38 26 82q0 54 -30.5 83t-83.5 29q-43 0 -73.5 -30.5t-47.5 -63.5h-204v322q74 41 168 63t212 22q138 0 249 -36.5t176.5 -118t65.5 -218.5q0 -118 -58 -198t-147 -129t-184 -74h383v-290h-865z" />
    <glyph glyph-name="uni00B3" unicode="&#xb3;" horiz-adv-x="1097" 
d="M540 469q-139 0 -259 20.5t-212 64.5v285h206q31 -42 76.5 -69t109.5 -27q52 0 93 24t41 74q0 36 -24.5 57.5t-61.5 21.5h-177v203h177q37 0 61.5 21.5t24.5 57.5q0 50 -41 74t-93 24q-63 0 -109 -28t-77 -68h-206v285q96 41 212.5 64t258.5 23q129 0 241.5 -36
t182.5 -112.5t70 -200.5q0 -82 -35 -133t-92 -73q56 -25 91.5 -74t35.5 -131q0 -122 -70.5 -199t-183.5 -112.5t-240 -35.5z" />
    <glyph glyph-name="acute" unicode="&#xb4;" horiz-adv-x="996" 
d="M85 1554l339 640h490l-404 -640h-425z" />
    <glyph glyph-name="paragraph" unicode="&#xb6;" horiz-adv-x="1653" 
d="M449 0v399l120 23v121q-171 0 -285 38t-171 133t-57 266q0 144 55.5 229.5t153.5 128.5t226.5 56.5t274.5 13.5h819v-394l-120 -23v-569l120 -23v-399h-504v896h-128v-896h-504z" />
    <glyph glyph-name="periodcentered" unicode="&#xb7;" horiz-adv-x="797" 
d="M48 655v512h640v-512h-640z" />
    <glyph glyph-name="cedilla" unicode="&#xb8;" horiz-adv-x="724" 
d="M320 -769q-68 0 -130 12.5t-118 31.5v190q49 -15 100 -26.5t103 -11.5q136 0 136 131q0 56 -32.5 93.5t-86.5 37.5q-34 0 -58 -17t-40 -40h-122v496h221v-257q126 11 210 -33.5t126 -116t42 -143.5q0 -176 -95 -261.5t-256 -85.5z" />
    <glyph glyph-name="uni00B9" unicode="&#xb9;" horiz-adv-x="727" 
d="M72 512v289l85 17v377h-85v289l511 52v-718l86 -17v-289h-597z" />
    <glyph glyph-name="ordmasculine" unicode="&#xba;" horiz-adv-x="1353" 
d="M676 479q-188 0 -327.5 61t-216 185t-76.5 314q0 186 78 304.5t217.5 175t324.5 56.5t324.5 -56.5t218 -175t78.5 -304.5q0 -189 -77 -313.5t-216.5 -185.5t-327.5 -61zM676 822q102 0 140 59.5t38 157.5q0 100 -38.5 157.5t-139.5 57.5t-139 -57.5t-38 -157.5
q0 -98 37.5 -157.5t139.5 -59.5z" />
    <glyph glyph-name="guillemotright" unicode="&#xbb;" horiz-adv-x="1776" 
d="M972 -17v481l334 163l-334 162v632l733 -374v-690zM78 -17v481l334 163l-334 162v632l733 -374v-690z" />
    <glyph glyph-name="onequarter" unicode="&#xbc;" horiz-adv-x="2668" 
d="M626 0l384 1536h640l-384 -1536h-640zM66 512v289l85 17v377h-85v289l511 52v-718l86 -17v-289h-597zM1888 0v293l87 17v90h-433v173l433 464l432 27v-491h216v-173h-216v-90l87 -17v-293h-606zM1791 573h184v216z" />
    <glyph glyph-name="onehalf" unicode="&#xbd;" horiz-adv-x="2548" 
d="M626 0l384 1536h640l-384 -1536h-640zM66 512v289l85 17v377h-85v289l511 52v-718l86 -17v-289h-597zM1616 -1v348q74 27 153.5 52.5t148.5 61.5t111 95q26 38 26 82q0 54 -30.5 83t-83.5 29q-43 0 -73.5 -30.5t-47.5 -63.5h-204v322q74 41 168 63t212 22
q138 0 249 -36.5t176.5 -118t65.5 -218.5q0 -118 -58 -198t-147 -129t-184 -74h383v-290h-865z" />
    <glyph glyph-name="threequarters" unicode="&#xbe;" horiz-adv-x="3020" 
d="M536 469q-139 0 -259 20.5t-212 64.5v285h206q31 -42 76.5 -69t109.5 -27q52 0 93 24t41 74q0 36 -24.5 57.5t-61.5 21.5h-177v203h177q37 0 61.5 21.5t24.5 57.5q0 50 -41 74t-93 24q-63 0 -109 -28t-77 -68h-206v285q96 41 212.5 64t258.5 23q129 0 241.5 -36
t182.5 -112.5t70 -200.5q0 -82 -35 -133t-92 -73q56 -25 91.5 -74t35.5 -131q0 -122 -70.5 -199t-183.5 -112.5t-240 -35.5zM978 0l384 1536h640l-384 -1536h-640zM2240 0v293l87 17v90h-433v173l433 464l432 27v-491h216v-173h-216v-90l87 -17v-293h-606zM2143 573h184v216
z" />
    <glyph glyph-name="questiondown" unicode="&#xbf;" horiz-adv-x="1382" 
d="M503 1153v384h640v-384h-640zM741 -40q-142 0 -267 24t-220 80t-149 150.5t-54 234.5q0 149 62 239.5t165 141t225 77.5v117h637q1 1 3 1v-345q-68 -30 -148 -49.5t-153 -45t-121 -73.5q-29 -29 -29 -63q0 -58 35.5 -92.5t92.5 -34.5q71 0 124.5 32t87.5 78h301v-346
q-113 -60 -262.5 -93t-329.5 -33z" />
    <glyph glyph-name="Agrave" unicode="&#xc0;" horiz-adv-x="1817" 
d="M77 0v504l123 25l295 1007h826l296 -1007l123 -25v-504h-569l-54 258h-418l-53 -258h-569zM785 601h246l-123 579zM748 1681l-404 640h490l339 -640h-425z" />
    <glyph glyph-name="Aacute" unicode="&#xc1;" horiz-adv-x="1817" 
d="M77 0v504l123 25l295 1007h826l296 -1007l123 -25v-504h-569l-54 258h-418l-53 -258h-569zM785 601h246l-123 579zM737 1680l339 640h490l-404 -640h-425z" />
    <glyph glyph-name="Acircumflex" unicode="&#xc2;" horiz-adv-x="1817" 
d="M77 0v504l123 25l295 1007h826l296 -1007l123 -25v-504h-569l-54 258h-418l-53 -258h-569zM785 601h246l-123 579zM324 1682l340 639h490l339 -639h-425l-159 383l-160 -383h-425z" />
    <glyph glyph-name="Atilde" unicode="&#xc3;" horiz-adv-x="1817" 
d="M77 0v504l123 25l295 1007h826l296 -1007l123 -25v-504h-569l-54 258h-418l-53 -258h-569zM785 601h246l-123 579zM461 1657l62 426q32 35 71.5 55t98.5 20q56 0 102 -17.5t89.5 -40t90 -40t103.5 -17.5q93 0 157 34t122 87l-60 -417q-26 -37 -65.5 -59t-95.5 -22
q-74 0 -135 24t-121.5 48t-135.5 24q-91 0 -157 -28.5t-126 -76.5z" />
    <glyph glyph-name="Adieresis" unicode="&#xc4;" horiz-adv-x="1817" 
d="M77 0v504l123 25l295 1007h826l296 -1007l123 -25v-504h-569l-54 258h-418l-53 -258h-569zM785 601h246l-123 579zM1068 1685v384h425v-384h-425zM324 1685v384h425v-384h-425z" />
    <glyph glyph-name="Aring" unicode="&#xc5;" horiz-adv-x="1817" 
d="M77 0v504l123 25l295 1007h826l296 -1007l123 -25v-504h-569l-54 258h-418l-53 -258h-569zM785 601h246l-123 579zM888 1594q-117 0 -207.5 47.5t-142 135.5t-51.5 207t51.5 205.5t142 133.5t207.5 47q118 0 208.5 -47t142.5 -133.5t52 -205.5q0 -120 -51.5 -207.5
t-142 -135t-209.5 -47.5zM889 1782q82 0 127.5 56.5t45.5 140.5q0 83 -46.5 139t-127.5 56t-126.5 -56t-45.5 -139q0 -85 45.5 -141t127.5 -56z" />
    <glyph glyph-name="AE" unicode="&#xc6;" horiz-adv-x="2383" 
d="M27 0l147 504l130 25l591 1007h1415v-512h-161q-80 53 -187 90.5t-241 37.5v-273l300 65v-354l-300 65v-271q134 0 238.5 36.5t183.5 91.5h167v-512h-1189l21 258h-418l-128 -258h-569zM911 601h246l46 579z" />
    <glyph glyph-name="Ccedilla" unicode="&#xc7;" horiz-adv-x="1621" 
d="M931 -18q-265 0 -458.5 90t-299 269t-105.5 445q0 265 103.5 436t295.5 254t456 83q191 0 343 -34t279 -92v-498h-301q-40 73 -99 125.5t-143 52.5q-104 0 -172.5 -44t-102 -114t-33.5 -148q0 -126 51.5 -199t137 -103.5t188.5 -30.5q119 0 245 29.5t229 68.5v-488
q-142 -48 -291 -75t-323 -27zM1048 -886q-68 0 -130 12.5t-118 31.5v190q49 -15 100 -26.5t103 -11.5q136 0 136 131q0 56 -32.5 93.5t-86.5 37.5q-34 0 -58 -17t-40 -40h-122v496h221v-257q126 11 210 -33.5t126 -116t42 -143.5q0 -176 -95 -261.5t-256 -85.5z" />
    <glyph glyph-name="Egrave" unicode="&#xc8;" horiz-adv-x="1495" 
d="M48 0v434l158 25v616l-158 25v436h1367v-512h-161q-76 53 -176.5 90.5t-231.5 37.5v-273l300 65v-354l-300 65v-271q129 0 229 36.5t173 91.5h167v-512h-1367zM587 1681l-404 640h490l339 -640h-425z" />
    <glyph glyph-name="Eacute" unicode="&#xc9;" horiz-adv-x="1495" 
d="M48 0v434l158 25v616l-158 25v436h1367v-512h-161q-76 53 -176.5 90.5t-231.5 37.5v-273l300 65v-354l-300 65v-271q129 0 229 36.5t173 91.5h167v-512h-1367zM576 1680l339 640h490l-404 -640h-425z" />
    <glyph glyph-name="Ecircumflex" unicode="&#xca;" horiz-adv-x="1495" 
d="M48 0v434l158 25v616l-158 25v436h1367v-512h-161q-76 53 -176.5 90.5t-231.5 37.5v-273l300 65v-354l-300 65v-271q129 0 229 36.5t173 91.5h167v-512h-1367zM163 1682l340 639h490l339 -639h-425l-159 383l-160 -383h-425z" />
    <glyph glyph-name="Edieresis" unicode="&#xcb;" horiz-adv-x="1495" 
d="M48 0v434l158 25v616l-158 25v436h1367v-512h-161q-76 53 -176.5 90.5t-231.5 37.5v-273l300 65v-354l-300 65v-271q129 0 229 36.5t173 91.5h167v-512h-1367zM907 1685v384h425v-384h-425zM163 1685v384h425v-384h-425z" />
    <glyph glyph-name="Igrave" unicode="&#xcc;" horiz-adv-x="1052" 
d="M48 0v434l158 25v618l-158 25v434h956v-434l-158 -25v-618l158 -25v-434h-956zM365 1681l-404 640h490l339 -640h-425z" />
    <glyph glyph-name="Iacute" unicode="&#xcd;" horiz-adv-x="1052" 
d="M48 0v434l158 25v618l-158 25v434h956v-434l-158 -25v-618l158 -25v-434h-956zM354 1680l339 640h490l-404 -640h-425z" />
    <glyph glyph-name="Icircumflex" unicode="&#xce;" horiz-adv-x="1052" 
d="M48 0v434l158 25v618l-158 25v434h956v-434l-158 -25v-618l158 -25v-434h-956zM-59 1682l340 639h490l339 -639h-425l-159 383l-160 -383h-425z" />
    <glyph glyph-name="Idieresis" unicode="&#xcf;" horiz-adv-x="1052" 
d="M48 0v434l158 25v618l-158 25v434h956v-434l-158 -25v-618l158 -25v-434h-956zM685 1685v384h425v-384h-425zM-59 1685v384h425v-384h-425z" />
    <glyph glyph-name="Eth" unicode="&#xd0;" horiz-adv-x="1896" 
d="M72 0v434l128 25v181h-124v256h124v218l-128 25v397h1165q189 -40 330 -129.5t219 -241t78 -379.5q0 -225 -75 -376.5t-212 -241.5t-324.5 -129t-412.5 -39h-768zM840 459h98q128 0 200 40.5t81 152.5q2 30 3 63.5t1 70.5q0 118 -21 190t-82 105t-182 33h-98v-218h132
v-256h-132v-181z" />
    <glyph glyph-name="Ntilde" unicode="&#xd1;" horiz-adv-x="2006" 
d="M81 0v434l156 25v618l-156 25v434h796l512 -787v326l-128 27v434h668v-434l-156 -25v-1077h-641l-511 749v-290l128 -24v-435h-668zM555 1657l62 426q32 35 71.5 55t98.5 20q56 0 102 -17.5t89.5 -40t90 -40t103.5 -17.5q93 0 157 34t122 87l-60 -417q-26 -37 -65.5 -59
t-95.5 -22q-74 0 -135 24t-121.5 48t-135.5 24q-91 0 -157 -28.5t-126 -76.5z" />
    <glyph glyph-name="Ograve" unicode="&#xd2;" horiz-adv-x="1928" 
d="M963 -18q-277 0 -478 85.5t-309 263.5t-108 455q0 267 112.5 438t314.5 253t468 82q267 0 469 -82t315 -253t113 -438q0 -275 -110 -453.5t-311.5 -264.5t-475.5 -86zM963 465q148 0 202.5 88t54.5 233q0 146 -55 231t-202 85t-201 -85t-54 -231q0 -145 53.5 -233
t201.5 -88zM803 1681l-404 640h490l339 -640h-425z" />
    <glyph glyph-name="Oacute" unicode="&#xd3;" horiz-adv-x="1928" 
d="M963 -18q-277 0 -478 85.5t-309 263.5t-108 455q0 267 112.5 438t314.5 253t468 82q267 0 469 -82t315 -253t113 -438q0 -275 -110 -453.5t-311.5 -264.5t-475.5 -86zM963 465q148 0 202.5 88t54.5 233q0 146 -55 231t-202 85t-201 -85t-54 -231q0 -145 53.5 -233
t201.5 -88zM792 1680l339 640h490l-404 -640h-425z" />
    <glyph glyph-name="Ocircumflex" unicode="&#xd4;" horiz-adv-x="1928" 
d="M963 -18q-277 0 -478 85.5t-309 263.5t-108 455q0 267 112.5 438t314.5 253t468 82q267 0 469 -82t315 -253t113 -438q0 -275 -110 -453.5t-311.5 -264.5t-475.5 -86zM963 465q148 0 202.5 88t54.5 233q0 146 -55 231t-202 85t-201 -85t-54 -231q0 -145 53.5 -233
t201.5 -88zM379 1682l340 639h490l339 -639h-425l-159 383l-160 -383h-425z" />
    <glyph glyph-name="Otilde" unicode="&#xd5;" horiz-adv-x="1928" 
d="M963 -18q-277 0 -478 85.5t-309 263.5t-108 455q0 267 112.5 438t314.5 253t468 82q267 0 469 -82t315 -253t113 -438q0 -275 -110 -453.5t-311.5 -264.5t-475.5 -86zM963 465q148 0 202.5 88t54.5 233q0 146 -55 231t-202 85t-201 -85t-54 -231q0 -145 53.5 -233
t201.5 -88zM516 1657l62 426q32 35 71.5 55t98.5 20q56 0 102 -17.5t89.5 -40t90 -40t103.5 -17.5q93 0 157 34t122 87l-60 -417q-26 -37 -65.5 -59t-95.5 -22q-74 0 -135 24t-121.5 48t-135.5 24q-91 0 -157 -28.5t-126 -76.5z" />
    <glyph glyph-name="Odieresis" unicode="&#xd6;" horiz-adv-x="1928" 
d="M963 -18q-277 0 -478 85.5t-309 263.5t-108 455q0 267 112.5 438t314.5 253t468 82q267 0 469 -82t315 -253t113 -438q0 -275 -110 -453.5t-311.5 -264.5t-475.5 -86zM963 465q148 0 202.5 88t54.5 233q0 146 -55 231t-202 85t-201 -85t-54 -231q0 -145 53.5 -233
t201.5 -88zM1123 1685v384h425v-384h-425zM379 1685v384h425v-384h-425z" />
    <glyph glyph-name="multiply" unicode="&#xd7;" horiz-adv-x="967" 
d="M215 315l-181 181l272 272l-272 272l181 181l272 -272l272 272l181 -181l-272 -272l272 -272l-181 -181l-272 272z" />
    <glyph glyph-name="Oslash" unicode="&#xd8;" horiz-adv-x="1859" 
d="M583 -208l-192 80l83 172q-203 89 -321 269.5t-118 472.5q0 272 111 446.5t312 259t472 84.5q149 0 271 -25l86 177l192 -64l-83 -172q197 -83 314 -254.5t117 -451.5q0 -277 -109.5 -460.5t-311 -274.5t-476.5 -91q-134 0 -256 24zM723 560l260 538q-20 4 -53 4
q-147 0 -201 -85t-54 -231q0 -69 10 -126.5t38 -99.5zM917 465h13q148 0 202.5 88t54.5 233q0 57 -7.5 107t-26.5 90l-248 -517q4 -1 12 -1z" />
    <glyph glyph-name="Ugrave" unicode="&#xd9;" horiz-adv-x="1975" 
d="M1041 -18q-268 0 -455 76.5t-285 242t-98 433.5v343l-158 25v434h891v-434l-158 -25v-323q0 -145 54 -217t202 -72t202 72t54 217v323l-158 25v434h798v-434l-158 -25v-343q0 -371 -183 -561.5t-548 -190.5zM857 1681l-404 640h490l339 -640h-425z" />
    <glyph glyph-name="Uacute" unicode="&#xda;" horiz-adv-x="1975" 
d="M1041 -18q-268 0 -455 76.5t-285 242t-98 433.5v343l-158 25v434h891v-434l-158 -25v-323q0 -145 54 -217t202 -72t202 72t54 217v323l-158 25v434h798v-434l-158 -25v-343q0 -371 -183 -561.5t-548 -190.5zM846 1680l339 640h490l-404 -640h-425z" />
    <glyph glyph-name="Ucircumflex" unicode="&#xdb;" horiz-adv-x="1975" 
d="M1041 -18q-268 0 -455 76.5t-285 242t-98 433.5v343l-158 25v434h891v-434l-158 -25v-323q0 -145 54 -217t202 -72t202 72t54 217v323l-158 25v434h798v-434l-158 -25v-343q0 -371 -183 -561.5t-548 -190.5zM433 1682l340 639h490l339 -639h-425l-159 383l-160 -383h-425
z" />
    <glyph glyph-name="Udieresis" unicode="&#xdc;" horiz-adv-x="1975" 
d="M1041 -18q-268 0 -455 76.5t-285 242t-98 433.5v343l-158 25v434h891v-434l-158 -25v-323q0 -145 54 -217t202 -72t202 72t54 217v323l-158 25v434h798v-434l-158 -25v-343q0 -371 -183 -561.5t-548 -190.5zM1177 1685v384h425v-384h-425zM433 1685v384h425v-384h-425z
" />
    <glyph glyph-name="Yacute" unicode="&#xdd;" horiz-adv-x="2067" 
d="M550 0v432l128 32l-439 614l-182 24v434h874v-434l-100 -24l203 -314l203 314l-100 24v434h883v-434l-191 -24l-439 -614l128 -32v-432h-968zM862 1680l339 640h490l-404 -640h-425z" />
    <glyph glyph-name="Thorn" unicode="&#xde;" horiz-adv-x="1771" 
d="M62 0v434l128 25v699l-128 25v481h768v-175h103q141 0 272.5 -9.5t239 -42t179 -100.5t91.5 -185q11 -71 11 -147q0 -127 -50.5 -211.5t-138.5 -135t-202.5 -75t-244 -32.5t-260.5 -8v-84l128 -25v-434h-896zM830 818q119 0 187.5 34t68.5 154q0 79 -31.5 118.5
t-88.5 52.5t-136 13v-372z" />
    <glyph glyph-name="germandbls" unicode="&#xdf;" horiz-adv-x="1791" 
d="M48 0v434l128 25v718q0 164 88 244.5t229 114.5h606q140 0 256 -41.5t186 -127.5t70 -220q0 -137 -73.5 -229.5t-175.5 -131.5q108 -5 197 -39t142.5 -104t53.5 -184q0 -252 -143 -355.5t-403 -103.5h-265v385q87 0 140 32.5t53 115.5t-53 115t-140 32v215q89 0 141 33
t52 118q0 80 -45.5 112t-128.5 32q-66 0 -106.5 -39t-40.5 -107v-1044h-768z" />
    <glyph glyph-name="agrave" unicode="&#xe0;" horiz-adv-x="1671" 
d="M50 0v464l116 23l277 921h776l279 -921l115 -23v-464h-535l-50 237h-393l-50 -237h-535zM696 553h271l-136 553zM675 1553l-404 640h490l339 -640h-425z" />
    <glyph glyph-name="aacute" unicode="&#xe1;" horiz-adv-x="1671" 
d="M50 0v464l116 23l277 921h776l279 -921l115 -23v-464h-535l-50 237h-393l-50 -237h-535zM696 553h271l-136 553zM664 1552l339 640h490l-404 -640h-425z" />
    <glyph glyph-name="acircumflex" unicode="&#xe2;" horiz-adv-x="1671" 
d="M50 0v464l116 23l277 921h776l279 -921l115 -23v-464h-535l-50 237h-393l-50 -237h-535zM696 553h271l-136 553zM251 1554l340 639h490l339 -639h-425l-159 383l-160 -383h-425z" />
    <glyph glyph-name="atilde" unicode="&#xe3;" horiz-adv-x="1671" 
d="M50 0v464l116 23l277 921h776l279 -921l115 -23v-464h-535l-50 237h-393l-50 -237h-535zM696 553h271l-136 553zM388 1529l62 426q32 35 71.5 55t98.5 20q56 0 102 -17.5t89.5 -40t90 -40t103.5 -17.5q93 0 157 34t122 87l-60 -417q-26 -37 -65.5 -59t-95.5 -22
q-74 0 -135 24t-121.5 48t-135.5 24q-91 0 -157 -28.5t-126 -76.5z" />
    <glyph glyph-name="adieresis" unicode="&#xe4;" horiz-adv-x="1671" 
d="M50 0v464l116 23l277 921h776l279 -921l115 -23v-464h-535l-50 237h-393l-50 -237h-535zM696 553h271l-136 553zM995 1557v384h425v-384h-425zM251 1557v384h425v-384h-425z" />
    <glyph glyph-name="aring" unicode="&#xe5;" horiz-adv-x="1671" 
d="M50 0v464l116 23l277 921h776l279 -921l115 -23v-464h-535l-50 237h-393l-50 -237h-535zM696 553h271l-136 553zM835 1566q-117 0 -207.5 47.5t-142 135.5t-51.5 207t51.5 205.5t142 133.5t207.5 47q118 0 208.5 -47t142.5 -133.5t52 -205.5q0 -120 -51.5 -207.5
t-142 -135t-209.5 -47.5zM836 1754q82 0 127.5 56.5t45.5 140.5q0 83 -46.5 139t-127.5 56t-126.5 -56t-45.5 -139q0 -85 45.5 -141t127.5 -56z" />
    <glyph glyph-name="ae" unicode="&#xe6;" horiz-adv-x="2342" 
d="M27 0l137 464l122 23l556 921h1424v-512h-167q-69 50 -168.5 80t-218.5 30v-217l277 59v-285l-277 60v-221q120 0 220 29t167 81h167v-512h-1214l22 237h-393l-122 -237h-532zM837 553h301v553z" />
    <glyph glyph-name="ccedilla" unicode="&#xe7;" horiz-adv-x="1497" 
d="M845 -18q-248 0 -430.5 81.5t-281.5 246t-99 413.5t97.5 409t278 237t428.5 77q179 0 322.5 -31.5t261.5 -84.5v-435h-283q-38 53 -92.5 91t-134.5 38q-126 0 -200.5 -86.5t-74.5 -214.5q0 -155 79 -229.5t232 -74.5q127 0 241.5 27t232.5 62v-435q-298 -91 -577 -91z
M966 -886q-68 0 -130 12.5t-118 31.5v190q49 -15 100 -26.5t103 -11.5q136 0 136 131q0 56 -32.5 93.5t-86.5 37.5q-34 0 -58 -17t-40 -40h-122v496h221v-257q126 11 210 -33.5t126 -116t42 -143.5q0 -176 -95 -261.5t-256 -85.5z" />
    <glyph glyph-name="egrave" unicode="&#xe8;" horiz-adv-x="1378" 
d="M66 0v399l120 23v567l-120 23v396h1236v-512h-137q-67 50 -164 80t-213 30v-217l277 59v-285l-277 60v-221q117 0 214.5 29t162.5 81h137v-512h-1236zM528 1553l-404 640h490l339 -640h-425z" />
    <glyph glyph-name="eacute" unicode="&#xe9;" horiz-adv-x="1378" 
d="M66 0v399l120 23v567l-120 23v396h1236v-512h-137q-67 50 -164 80t-213 30v-217l277 59v-285l-277 60v-221q117 0 214.5 29t162.5 81h137v-512h-1236zM517 1552l339 640h490l-404 -640h-425z" />
    <glyph glyph-name="ecircumflex" unicode="&#xea;" horiz-adv-x="1378" 
d="M66 0v399l120 23v567l-120 23v396h1236v-512h-137q-67 50 -164 80t-213 30v-217l277 59v-285l-277 60v-221q117 0 214.5 29t162.5 81h137v-512h-1236zM104 1554l340 639h490l339 -639h-425l-159 383l-160 -383h-425z" />
    <glyph glyph-name="edieresis" unicode="&#xeb;" horiz-adv-x="1378" 
d="M66 0v399l120 23v567l-120 23v396h1236v-512h-137q-67 50 -164 80t-213 30v-217l277 59v-285l-277 60v-221q117 0 214.5 29t162.5 81h137v-512h-1236zM848 1557v384h425v-384h-425zM104 1557v384h425v-384h-425z" />
    <glyph glyph-name="igrave" unicode="&#xec;" horiz-adv-x="978" 
d="M66 0v399l120 23v569l-120 23v394h842v-394l-120 -23v-569l120 -23v-399h-842zM328 1553l-404 640h490l339 -640h-425z" />
    <glyph glyph-name="iacute" unicode="&#xed;" horiz-adv-x="978" 
d="M66 0v399l120 23v569l-120 23v394h842v-394l-120 -23v-569l120 -23v-399h-842zM317 1552l339 640h490l-404 -640h-425z" />
    <glyph glyph-name="icircumflex" unicode="&#xee;" horiz-adv-x="978" 
d="M66 0v399l120 23v569l-120 23v394h842v-394l-120 -23v-569l120 -23v-399h-842zM-96 1554l340 639h490l339 -639h-425l-159 383l-160 -383h-425z" />
    <glyph glyph-name="idieresis" unicode="&#xef;" horiz-adv-x="978" 
d="M66 0v399l120 23v569l-120 23v394h842v-394l-120 -23v-569l120 -23v-399h-842zM648 1557v384h425v-384h-425zM-96 1557v384h425v-384h-425z" />
    <glyph glyph-name="eth" unicode="&#xf0;" horiz-adv-x="1789" 
d="M74 0v399l120 23v170h-117v256h117v177l-120 23v360h1095q175 -37 307.5 -117.5t207 -218t74.5 -349.5q0 -209 -71 -348.5t-200.5 -222t-305.5 -117.5t-385 -35h-722zM796 422h92q110 0 168 29t79 95t21 177q0 109 -21 175t-78.5 96.5t-168.5 30.5h-92v-177h177v-256
h-177v-170z" />
    <glyph glyph-name="ntilde" unicode="&#xf1;" horiz-adv-x="1820" 
d="M66 0v399l120 23v569l-120 23v394h722l481 -759v340l-120 25v394h601v-394l-120 -23v-569l120 -23v-399h-722l-481 739v-317l121 -22v-400h-602zM462 1529l62 426q32 35 71.5 55t98.5 20q56 0 102 -17.5t89.5 -40t90 -40t103.5 -17.5q93 0 157 34t122 87l-60 -417
q-26 -37 -65.5 -59t-95.5 -22q-74 0 -135 24t-121.5 48t-135.5 24q-91 0 -157 -28.5t-126 -76.5z" />
    <glyph glyph-name="ograve" unicode="&#xf2;" horiz-adv-x="1749" 
d="M875 -18q-256 0 -445 78t-292.5 242t-103.5 421q0 252 106 411.5t295.5 235.5t439.5 76t440 -76t296.5 -235.5t106.5 -411.5q0 -257 -103 -421t-292 -242t-448 -78zM875 418q140 0 191 84t51 221t-51.5 217t-190.5 80q-136 0 -187.5 -78t-51.5 -214q0 -139 48.5 -224.5
t190.5 -85.5zM714 1553l-404 640h490l339 -640h-425z" />
    <glyph glyph-name="oacute" unicode="&#xf3;" horiz-adv-x="1749" 
d="M875 -18q-256 0 -445 78t-292.5 242t-103.5 421q0 252 106 411.5t295.5 235.5t439.5 76t440 -76t296.5 -235.5t106.5 -411.5q0 -257 -103 -421t-292 -242t-448 -78zM875 418q140 0 191 84t51 221t-51.5 217t-190.5 80q-136 0 -187.5 -78t-51.5 -214q0 -139 48.5 -224.5
t190.5 -85.5zM703 1552l339 640h490l-404 -640h-425z" />
    <glyph glyph-name="ocircumflex" unicode="&#xf4;" horiz-adv-x="1749" 
d="M875 -18q-256 0 -445 78t-292.5 242t-103.5 421q0 252 106 411.5t295.5 235.5t439.5 76t440 -76t296.5 -235.5t106.5 -411.5q0 -257 -103 -421t-292 -242t-448 -78zM875 418q140 0 191 84t51 221t-51.5 217t-190.5 80q-136 0 -187.5 -78t-51.5 -214q0 -139 48.5 -224.5
t190.5 -85.5zM290 1554l340 639h490l339 -639h-425l-159 383l-160 -383h-425z" />
    <glyph glyph-name="otilde" unicode="&#xf5;" horiz-adv-x="1749" 
d="M875 -18q-256 0 -445 78t-292.5 242t-103.5 421q0 252 106 411.5t295.5 235.5t439.5 76t440 -76t296.5 -235.5t106.5 -411.5q0 -257 -103 -421t-292 -242t-448 -78zM875 418q140 0 191 84t51 221t-51.5 217t-190.5 80q-136 0 -187.5 -78t-51.5 -214q0 -139 48.5 -224.5
t190.5 -85.5zM427 1529l62 426q32 35 71.5 55t98.5 20q56 0 102 -17.5t89.5 -40t90 -40t103.5 -17.5q93 0 157 34t122 87l-60 -417q-26 -37 -65.5 -59t-95.5 -22q-74 0 -135 24t-121.5 48t-135.5 24q-91 0 -157 -28.5t-126 -76.5z" />
    <glyph glyph-name="odieresis" unicode="&#xf6;" horiz-adv-x="1749" 
d="M875 -18q-256 0 -445 78t-292.5 242t-103.5 421q0 252 106 411.5t295.5 235.5t439.5 76t440 -76t296.5 -235.5t106.5 -411.5q0 -257 -103 -421t-292 -242t-448 -78zM875 418q140 0 191 84t51 221t-51.5 217t-190.5 80q-136 0 -187.5 -78t-51.5 -214q0 -139 48.5 -224.5
t190.5 -85.5zM1034 1557v384h425v-384h-425zM290 1557v384h425v-384h-425z" />
    <glyph glyph-name="divide" unicode="&#xf7;" horiz-adv-x="833" 
d="M225 896v384h384v-384h-384zM33 512v256h768v-256h-768zM225 0v384h384v-384h-384z" />
    <glyph glyph-name="oslash" unicode="&#xf8;" horiz-adv-x="1749" 
d="M550 -208l-192 80l82 171q-187 81 -296.5 246.5t-109.5 433.5q0 253 105.5 413.5t295 237t440.5 76.5q128 0 233 -19l82 169l192 -64l-77 -160q186 -76 299.5 -233.5t113.5 -419.5q0 -257 -104 -426t-293 -251.5t-446 -82.5q-65 0 -121.5 5t-112.5 15zM673 527l234 485
q-7 1 -15.5 1.5t-16.5 0.5q-136 0 -187.5 -77.5t-51.5 -211.5q0 -58 7.5 -109t29.5 -89zM853 428h22q137 0 189.5 79.5t52.5 215.5q0 55 -7.5 102.5t-27.5 82.5z" />
    <glyph glyph-name="ugrave" unicode="&#xf9;" horiz-adv-x="1824" 
d="M952 -18q-371 0 -576 183.5t-205 557.5v268l-120 23v394h781v-394l-120 -23v-167q0 -21 0.5 -42t0.5 -40v-21q0 -135 51.5 -214t187.5 -79q137 0 189.5 79.5t52.5 215.5v23q0 18 -0.5 38.5t-0.5 41.5v165l-120 23v394h694v-394l-121 -23q-1 -15 -1 -29.5v-28.5v-210
q0 -352 -173 -546.5t-520 -194.5zM751 1553l-404 640h490l339 -640h-425z" />
    <glyph glyph-name="uacute" unicode="&#xfa;" horiz-adv-x="1824" 
d="M952 -18q-371 0 -576 183.5t-205 557.5v268l-120 23v394h781v-394l-120 -23v-167q0 -21 0.5 -42t0.5 -40v-21q0 -135 51.5 -214t187.5 -79q137 0 189.5 79.5t52.5 215.5v23q0 18 -0.5 38.5t-0.5 41.5v165l-120 23v394h694v-394l-121 -23q-1 -15 -1 -29.5v-28.5v-210
q0 -352 -173 -546.5t-520 -194.5zM740 1552l339 640h490l-404 -640h-425z" />
    <glyph glyph-name="ucircumflex" unicode="&#xfb;" horiz-adv-x="1824" 
d="M952 -18q-371 0 -576 183.5t-205 557.5v268l-120 23v394h781v-394l-120 -23v-167q0 -21 0.5 -42t0.5 -40v-21q0 -135 51.5 -214t187.5 -79q137 0 189.5 79.5t52.5 215.5v23q0 18 -0.5 38.5t-0.5 41.5v165l-120 23v394h694v-394l-121 -23q-1 -15 -1 -29.5v-28.5v-210
q0 -352 -173 -546.5t-520 -194.5zM327 1554l340 639h490l339 -639h-425l-159 383l-160 -383h-425z" />
    <glyph glyph-name="udieresis" unicode="&#xfc;" horiz-adv-x="1824" 
d="M952 -18q-371 0 -576 183.5t-205 557.5v268l-120 23v394h781v-394l-120 -23v-167q0 -21 0.5 -42t0.5 -40v-21q0 -135 51.5 -214t187.5 -79q137 0 189.5 79.5t52.5 215.5v23q0 18 -0.5 38.5t-0.5 41.5v165l-120 23v394h694v-394l-121 -23q-1 -15 -1 -29.5v-28.5v-210
q0 -352 -173 -546.5t-520 -194.5zM1071 1557v384h425v-384h-425zM327 1557v384h425v-384h-425z" />
    <glyph glyph-name="yacute" unicode="&#xfd;" horiz-adv-x="1911" 
d="M499 0v397l120 30l-413 565l-152 22v394h803v-394l-94 -22l191 -289l190 289l-94 22v394h802v-394l-151 -22l-413 -565l121 -30v-397h-910zM784 1552l339 640h490l-404 -640h-425z" />
    <glyph glyph-name="thorn" unicode="&#xfe;" horiz-adv-x="1657" 
d="M62 0v399l120 23v697l-120 23v394h722v-198h97q149 0 283 -12.5t238 -54.5t164 -128t60 -233q0 -155 -71 -243.5t-191.5 -130t-271 -52.5t-308.5 -11v-51l120 -23v-399h-842zM784 726q118 0 179.5 37t61.5 156q0 114 -64 146.5t-177 32.5v-372z" />
    <glyph glyph-name="ydieresis" unicode="&#xff;" horiz-adv-x="1911" 
d="M499 0v397l120 30l-413 565l-152 22v394h803v-394l-94 -22l191 -289l190 289l-94 22v394h802v-394l-151 -22l-413 -565l121 -30v-397h-910zM1115 1557v384h425v-384h-425zM371 1557v384h425v-384h-425z" />
    <glyph glyph-name="Amacron" unicode="&#x100;" horiz-adv-x="1817" 
d="M77 0v504l123 25l295 1007h826l296 -1007l123 -25v-504h-569l-54 258h-418l-53 -258h-569zM785 601h246l-123 579zM653 1684v216h512v-216h-512z" />
    <glyph glyph-name="amacron" unicode="&#x101;" horiz-adv-x="1671" 
d="M50 0v464l116 23l277 921h776l279 -921l115 -23v-464h-535l-50 237h-393l-50 -237h-535zM696 553h271l-136 553zM580 1556v216h512v-216h-512z" />
    <glyph glyph-name="Abreve" unicode="&#x102;" horiz-adv-x="1817" 
d="M77 0v504l123 25l295 1007h826l296 -1007l123 -25v-504h-569l-54 258h-418l-53 -258h-569zM785 601h246l-123 579zM908 1663q-126 0 -215.5 58t-137.5 158.5t-48 228.5h269q0 -64 35 -108t98 -44q62 0 97.5 44t35.5 108h269q0 -129 -48 -229.5t-138.5 -158t-216.5 -57.5z
" />
    <glyph glyph-name="abreve" unicode="&#x103;" horiz-adv-x="1671" 
d="M50 0v464l116 23l277 921h776l279 -921l115 -23v-464h-535l-50 237h-393l-50 -237h-535zM696 553h271l-136 553zM835 1535q-126 0 -215.5 58t-137.5 158.5t-48 228.5h269q0 -64 35 -108t98 -44q62 0 97.5 44t35.5 108h269q0 -129 -48 -229.5t-138.5 -158t-216.5 -57.5z
" />
    <glyph glyph-name="Aogonek" unicode="&#x104;" horiz-adv-x="1817" 
d="M77 0v504l123 25l295 1007h826l296 -1007l123 -25v-504h-569l-54 258h-418l-53 -258h-569zM785 601h246l-123 579zM1379 -886q-184 0 -283.5 99t-99.5 285q0 113 40.5 200t86.5 157q56 83 128 155h334q-77 -75 -149.5 -165.5t-107.5 -203.5q-12 -37 -12 -73
q0 -131 136 -131q66 0 183 38v-317q-55 -18 -121.5 -31t-134.5 -13z" />
    <glyph glyph-name="aogonek" unicode="&#x105;" horiz-adv-x="1671" 
d="M50 0v464l116 23l277 921h776l279 -921l115 -23v-464h-535l-50 237h-393l-50 -237h-535zM696 553h271l-136 553zM1248 -886q-184 0 -283.5 99t-99.5 285q0 113 40.5 200t86.5 157q56 83 128 155h334q-77 -75 -149.5 -165.5t-107.5 -203.5q-12 -37 -12 -73
q0 -131 136 -131q66 0 183 38v-317q-55 -18 -121.5 -31t-134.5 -13z" />
    <glyph glyph-name="Cacute" unicode="&#x106;" horiz-adv-x="1621" 
d="M931 -18q-265 0 -458.5 90t-299 269t-105.5 445q0 265 103.5 436t295.5 254t456 83q191 0 343 -34t279 -92v-498h-301q-40 73 -99 125.5t-143 52.5q-104 0 -172.5 -44t-102 -114t-33.5 -148q0 -126 51.5 -199t137 -103.5t188.5 -30.5q119 0 245 29.5t229 68.5v-488
q-142 -48 -291 -75t-323 -27zM759 1680l339 640h490l-404 -640h-425z" />
    <glyph glyph-name="cacute" unicode="&#x107;" horiz-adv-x="1497" 
d="M845 -18q-248 0 -430.5 81.5t-281.5 246t-99 413.5t97.5 409t278 237t428.5 77q179 0 322.5 -31.5t261.5 -84.5v-435h-283q-38 53 -92.5 91t-134.5 38q-126 0 -200.5 -86.5t-74.5 -214.5q0 -155 79 -229.5t232 -74.5q127 0 241.5 27t232.5 62v-435q-298 -91 -577 -91z
M697 1552l339 640h490l-404 -640h-425z" />
    <glyph glyph-name="Cdotaccent" unicode="&#x10a;" horiz-adv-x="1621" 
d="M931 -18q-265 0 -458.5 90t-299 269t-105.5 445q0 265 103.5 436t295.5 254t456 83q191 0 343 -34t279 -92v-498h-301q-40 73 -99 125.5t-143 52.5q-104 0 -172.5 -44t-102 -114t-33.5 -148q0 -126 51.5 -199t137 -103.5t188.5 -30.5q119 0 245 29.5t229 68.5v-488
q-142 -48 -291 -75t-323 -27zM611 1692v512h640v-512h-640z" />
    <glyph glyph-name="cdotaccent" unicode="&#x10b;" horiz-adv-x="1497" 
d="M845 -18q-248 0 -430.5 81.5t-281.5 246t-99 413.5t97.5 409t278 237t428.5 77q179 0 322.5 -31.5t261.5 -84.5v-435h-283q-38 53 -92.5 91t-134.5 38q-126 0 -200.5 -86.5t-74.5 -214.5q0 -155 79 -229.5t232 -74.5q127 0 241.5 27t232.5 62v-435q-298 -91 -577 -91z
M549 1564v512h640v-512h-640z" />
    <glyph glyph-name="Ccaron" unicode="&#x10c;" horiz-adv-x="1621" 
d="M931 -18q-265 0 -458.5 90t-299 269t-105.5 445q0 265 103.5 436t295.5 254t456 83q191 0 343 -34t279 -92v-498h-301q-40 73 -99 125.5t-143 52.5q-104 0 -172.5 -44t-102 -114t-33.5 -148q0 -126 51.5 -199t137 -103.5t188.5 -30.5q119 0 245 29.5t229 68.5v-488
q-142 -48 -291 -75t-323 -27zM686 1681l-340 639h425l160 -383l159 383h425l-339 -639h-490z" />
    <glyph glyph-name="ccaron" unicode="&#x10d;" horiz-adv-x="1497" 
d="M845 -18q-248 0 -430.5 81.5t-281.5 246t-99 413.5t97.5 409t278 237t428.5 77q179 0 322.5 -31.5t261.5 -84.5v-435h-283q-38 53 -92.5 91t-134.5 38q-126 0 -200.5 -86.5t-74.5 -214.5q0 -155 79 -229.5t232 -74.5q127 0 241.5 27t232.5 62v-435q-298 -91 -577 -91z
M624 1553l-340 639h425l160 -383l159 383h425l-339 -639h-490z" />
    <glyph glyph-name="Dcaron" unicode="&#x10e;" horiz-adv-x="1876" 
d="M13 0v434l160 25v655l-160 25v397h1197q189 -40 330 -129.5t219 -241t78 -379.5q0 -225 -75 -376.5t-212 -241.5t-324.5 -129t-412.5 -39h-800zM813 459h98q128 0 200 40.5t81 152.5q2 30 3 63.5t1 70.5q0 118 -21 190t-82 105t-182 33h-98v-655zM723 1681l-340 639h425
l160 -383l159 383h425l-339 -639h-490z" />
    <glyph glyph-name="dcaron" unicode="&#x10f;" horiz-adv-x="1779" 
d="M64 0v399l120 23v603l-120 23v360h1095q175 -37 307.5 -117.5t207 -218t74.5 -349.5q0 -209 -71 -348.5t-200.5 -222t-305.5 -117.5t-385 -35h-722zM786 422h92q110 0 168 29t79 95t21 177q0 109 -21 175t-78.5 96.5t-168.5 30.5h-92v-603zM645 1553l-340 639h425
l160 -383l159 383h425l-339 -639h-490z" />
    <glyph glyph-name="Dcroat" unicode="&#x110;" horiz-adv-x="1896" 
d="M72 0v434l128 25v181h-124v256h124v218l-128 25v397h1165q189 -40 330 -129.5t219 -241t78 -379.5q0 -225 -75 -376.5t-212 -241.5t-324.5 -129t-412.5 -39h-768zM840 459h98q128 0 200 40.5t81 152.5q2 30 3 63.5t1 70.5q0 118 -21 190t-82 105t-182 33h-98v-218h132
v-256h-132v-181z" />
    <glyph glyph-name="dcroat" unicode="&#x111;" horiz-adv-x="1790" 
d="M75 0v399l120 23v176h-121v256h121v171l-120 23v360h1095q175 -37 307.5 -117.5t207 -218t74.5 -349.5q0 -209 -71 -348.5t-200.5 -222t-305.5 -117.5t-385 -35h-722zM797 422h92q110 0 168 29t79 95t21 177q0 109 -21 175t-78.5 96.5t-168.5 30.5h-92v-171h128v-256
h-128v-176z" />
    <glyph glyph-name="Emacron" unicode="&#x112;" horiz-adv-x="1495" 
d="M48 0v434l158 25v616l-158 25v436h1367v-512h-161q-76 53 -176.5 90.5t-231.5 37.5v-273l300 65v-354l-300 65v-271q129 0 229 36.5t173 91.5h167v-512h-1367zM492 1684v216h512v-216h-512z" />
    <glyph glyph-name="emacron" unicode="&#x113;" horiz-adv-x="1378" 
d="M66 0v399l120 23v567l-120 23v396h1236v-512h-137q-67 50 -164 80t-213 30v-217l277 59v-285l-277 60v-221q117 0 214.5 29t162.5 81h137v-512h-1236zM433 1556v216h512v-216h-512z" />
    <glyph glyph-name="Edotaccent" unicode="&#x116;" horiz-adv-x="1495" 
d="M48 0v434l158 25v616l-158 25v436h1367v-512h-161q-76 53 -176.5 90.5t-231.5 37.5v-273l300 65v-354l-300 65v-271q129 0 229 36.5t173 91.5h167v-512h-1367zM428 1692v512h640v-512h-640z" />
    <glyph glyph-name="edotaccent" unicode="&#x117;" horiz-adv-x="1378" 
d="M66 0v399l120 23v567l-120 23v396h1236v-512h-137q-67 50 -164 80t-213 30v-217l277 59v-285l-277 60v-221q117 0 214.5 29t162.5 81h137v-512h-1236zM369 1564v512h640v-512h-640z" />
    <glyph glyph-name="Eogonek" unicode="&#x118;" horiz-adv-x="1495" 
d="M48 0v434l158 25v616l-158 25v436h1367v-512h-161q-76 53 -176.5 90.5t-231.5 37.5v-273l300 65v-354l-300 65v-271q129 0 229 36.5t173 91.5h167v-512h-1367zM854 -866q-184 0 -283.5 99t-99.5 285q0 113 40.5 200t86.5 157q56 83 128 155h334q-77 -75 -149.5 -165.5
t-107.5 -203.5q-12 -37 -12 -73q0 -131 136 -131q66 0 183 38v-317q-55 -18 -121.5 -31t-134.5 -13z" />
    <glyph glyph-name="eogonek" unicode="&#x119;" horiz-adv-x="1378" 
d="M66 0v399l120 23v567l-120 23v396h1236v-512h-137q-67 50 -164 80t-213 30v-217l277 59v-285l-277 60v-221q117 0 214.5 29t162.5 81h137v-512h-1236zM644 -866q-184 0 -283.5 99t-99.5 285q0 113 40.5 200t86.5 157q56 83 128 155h334q-77 -75 -149.5 -165.5
t-107.5 -203.5q-12 -37 -12 -73q0 -131 136 -131q66 0 183 38v-317q-55 -18 -121.5 -31t-134.5 -13z" />
    <glyph glyph-name="Ecaron" unicode="&#x11a;" horiz-adv-x="1495" 
d="M48 0v434l158 25v616l-158 25v436h1367v-512h-161q-76 53 -176.5 90.5t-231.5 37.5v-273l300 65v-354l-300 65v-271q129 0 229 36.5t173 91.5h167v-512h-1367zM503 1681l-340 639h425l160 -383l159 383h425l-339 -639h-490z" />
    <glyph glyph-name="ecaron" unicode="&#x11b;" horiz-adv-x="1378" 
d="M66 0v399l120 23v567l-120 23v396h1236v-512h-137q-67 50 -164 80t-213 30v-217l277 59v-285l-277 60v-221q117 0 214.5 29t162.5 81h137v-512h-1236zM444 1553l-340 639h425l160 -383l159 383h425l-339 -639h-490z" />
    <glyph glyph-name="Gbreve" unicode="&#x11e;" horiz-adv-x="1658" 
d="M911 -18q-397 0 -620.5 203.5t-223.5 600.5q0 386 216 579.5t599 193.5q206 0 366.5 -32.5t295.5 -96.5v-457h-301q-40 57 -99 98.5t-143 41.5q-90 0 -155.5 -43.5t-101.5 -117.5t-36 -166q0 -162 73.5 -247.5t228.5 -85.5q40 0 76 4.5t70 11.5v121h-192v274h622v-730
q-143 -60 -309.5 -106t-365.5 -46zM861 1683q-126 0 -215.5 58t-137.5 158.5t-48 228.5h269q0 -64 35 -108t98 -44q62 0 97.5 44t35.5 108h269q0 -129 -48 -229.5t-138.5 -158t-216.5 -57.5z" />
    <glyph glyph-name="gbreve" unicode="&#x11f;" horiz-adv-x="1525" 
d="M827 -18q-369 0 -581 185.5t-212 555.5q0 249 97.5 409t278 237t428.5 77q179 0 322.5 -31.5t261.5 -84.5v-435h-283q-38 56 -86.5 92.5t-140.5 36.5q-136 0 -205.5 -81t-69.5 -220q0 -163 61.5 -243.5t221.5 -80.5q45 0 82.5 6t75.5 18v114h-201v246h585v-664
q-136 -57 -291 -97t-344 -40zM822 1565q-126 0 -215.5 58t-137.5 158.5t-48 228.5h269q0 -64 35 -108t98 -44q62 0 97.5 44t35.5 108h269q0 -129 -48 -229.5t-138.5 -158t-216.5 -57.5z" />
    <glyph glyph-name="Gdotaccent" unicode="&#x120;" horiz-adv-x="1658" 
d="M911 -18q-397 0 -620.5 203.5t-223.5 600.5q0 386 216 579.5t599 193.5q206 0 366.5 -32.5t295.5 -96.5v-457h-301q-40 57 -99 98.5t-143 41.5q-90 0 -155.5 -43.5t-101.5 -117.5t-36 -166q0 -162 73.5 -247.5t228.5 -85.5q40 0 76 4.5t70 11.5v121h-192v274h622v-730
q-143 -60 -309.5 -106t-365.5 -46zM542 1712v512h640v-512h-640z" />
    <glyph glyph-name="gdotaccent" unicode="&#x121;" horiz-adv-x="1525" 
d="M827 -18q-369 0 -581 185.5t-212 555.5q0 249 97.5 409t278 237t428.5 77q179 0 322.5 -31.5t261.5 -84.5v-435h-283q-38 56 -86.5 92.5t-140.5 36.5q-136 0 -205.5 -81t-69.5 -220q0 -163 61.5 -243.5t221.5 -80.5q45 0 82.5 6t75.5 18v114h-201v246h585v-664
q-136 -57 -291 -97t-344 -40zM503 1594v512h640v-512h-640z" />
    <glyph glyph-name="uni0122" unicode="&#x122;" horiz-adv-x="1658" 
d="M911 -18q-397 0 -620.5 203.5t-223.5 600.5q0 386 216 579.5t599 193.5q206 0 366.5 -32.5t295.5 -96.5v-457h-301q-40 57 -99 98.5t-143 41.5q-90 0 -155.5 -43.5t-101.5 -117.5t-36 -166q0 -162 73.5 -247.5t228.5 -85.5q40 0 76 4.5t70 11.5v121h-192v274h622v-730
q-143 -60 -309.5 -106t-365.5 -46zM769 -976v270q47 3 76.5 29.5t29.5 77.5h-213v427h534v-426q0 -193 -118.5 -285.5t-308.5 -92.5z" />
    <glyph glyph-name="uni0123" unicode="&#x123;" horiz-adv-x="1525" 
d="M827 -18q-369 0 -581 185.5t-212 555.5q0 249 97.5 409t278 237t428.5 77q179 0 322.5 -31.5t261.5 -84.5v-435h-283q-38 56 -86.5 92.5t-140.5 36.5q-136 0 -205.5 -81t-69.5 -220q0 -163 61.5 -243.5t221.5 -80.5q45 0 82.5 6t75.5 18v114h-201v246h585v-664
q-136 -57 -291 -97t-344 -40zM663 2414q190 0 308.5 -92t118.5 -286v-426h-534v427h213q0 51 -29.5 77.5t-76.5 29.5v270z" />
    <glyph glyph-name="Hbar" unicode="&#x126;" horiz-adv-x="2270" 
d="M83 0v434l156 25v611h-170v226h170v240h640v-240h512v240h640v-240h170v-226h-170v-611l156 -25v-434h-944v434l148 25v201h-512v-201l148 -25v-434h-944zM879 886h512v184h-512v-184z" />
    <glyph glyph-name="hbar" unicode="&#x127;" horiz-adv-x="2057" 
d="M66 0v399l120 23v567h-158v235h158v184h602v-184h481v184h602v-184h158v-235h-158v-567l120 -23v-399h-842v399l120 23v167h-481v-167l120 -23v-399h-842zM788 824h481v165h-481v-165z" />
    <glyph glyph-name="Imacron" unicode="&#x12a;" horiz-adv-x="1052" 
d="M48 0v434l158 25v618l-158 25v434h956v-434l-158 -25v-618l158 -25v-434h-956zM270 1684v216h512v-216h-512z" />
    <glyph glyph-name="imacron" unicode="&#x12b;" horiz-adv-x="978" 
d="M66 0v399l120 23v569l-120 23v394h842v-394l-120 -23v-569l120 -23v-399h-842zM233 1556v216h512v-216h-512z" />
    <glyph glyph-name="Iogonek" unicode="&#x12e;" horiz-adv-x="1052" 
d="M48 0v434l158 25v618l-158 25v434h956v-434l-158 -25v-618l158 -25v-434h-956zM691 -886q-184 0 -283.5 99t-99.5 285q0 113 40.5 200t86.5 157q56 83 128 155h334q-77 -75 -149.5 -165.5t-107.5 -203.5q-12 -37 -12 -73q0 -131 136 -131q66 0 183 38v-317
q-55 -18 -121.5 -31t-134.5 -13z" />
    <glyph glyph-name="iogonek" unicode="&#x12f;" horiz-adv-x="978" 
d="M66 0v399l120 23v569l-120 23v394h842v-394l-120 -23v-569l120 -23v-399h-842zM169 1564v512h640v-512h-640zM652 -896q-184 0 -283.5 99t-99.5 285q0 113 40.5 200t86.5 157q56 83 128 155h334q-77 -75 -149.5 -165.5t-107.5 -203.5q-12 -37 -12 -73q0 -131 136 -131
q66 0 183 38v-317q-55 -18 -121.5 -31t-134.5 -13z" />
    <glyph glyph-name="Idotaccent" unicode="&#x130;" horiz-adv-x="1052" 
d="M48 0v434l158 25v618l-158 25v434h956v-434l-158 -25v-618l158 -25v-434h-956zM206 1692v512h640v-512h-640z" />
    <glyph glyph-name="dotlessi" unicode="&#x131;" horiz-adv-x="978" 
d="M66 0v399l120 23v569l-120 23v394h842v-394l-120 -23v-569l120 -23v-399h-842z" />
    <glyph glyph-name="uni0136" unicode="&#x136;" horiz-adv-x="1994" 
d="M46 0v434l158 25v618l-158 25v434h798v-616l283 616h793v-246q-139 -101 -255 -231t-212 -273q106 -145 218.5 -293t246.5 -266v-227h-791l-283 641v-641h-798zM837 -976v270q47 3 76.5 29.5t29.5 77.5h-213v427h534v-426q0 -193 -118.5 -285.5t-308.5 -92.5z" />
    <glyph glyph-name="uni0137" unicode="&#x137;" horiz-adv-x="1783" 
d="M66 0v399l120 23v569l-120 23v394h722v-562l266 562h648v-254q-105 -89 -192 -199.5t-160 -229.5q86 -136 178.5 -271.5t200.5 -249.5v-204h-675l-266 590v-590h-722zM732 -976v270q47 3 76.5 29.5t29.5 77.5h-213v427h534v-426q0 -193 -118.5 -285.5t-308.5 -92.5z" />
    <glyph glyph-name="Lacute" unicode="&#x139;" horiz-adv-x="1372" 
d="M46 0v434l158 25v618l-158 25v434h946v-434l-148 -25v-693q97 0 167 39.5t118 88.5h167v-512h-1250zM374 1680l339 640h490l-404 -640h-425z" />
    <glyph glyph-name="lacute" unicode="&#x13a;" horiz-adv-x="1269" 
d="M66 0v399l120 23v569l-120 23v394h842v-394l-121 -23v-607q88 0 151.5 40t104.5 88h167v-512h-1144zM312 1552l339 640h490l-404 -640h-425z" />
    <glyph glyph-name="uni013B" unicode="&#x13b;" horiz-adv-x="1372" 
d="M46 0v434l158 25v618l-158 25v434h946v-434l-148 -25v-693q97 0 167 39.5t118 88.5h167v-512h-1250zM526 -976v270q47 3 76.5 29.5t29.5 77.5h-213v427h534v-426q0 -193 -118.5 -285.5t-308.5 -92.5z" />
    <glyph glyph-name="uni013C" unicode="&#x13c;" horiz-adv-x="1269" 
d="M66 0v399l120 23v569l-120 23v394h842v-394l-121 -23v-607q88 0 151.5 40t104.5 88h167v-512h-1144zM475 -976v270q47 3 76.5 29.5t29.5 77.5h-213v427h534v-426q0 -193 -118.5 -285.5t-308.5 -92.5z" />
    <glyph glyph-name="Lcaron" unicode="&#x13d;" horiz-adv-x="1785" 
d="M1160 1536h625v-499q0 -150 -63 -248t-175.5 -146t-261.5 -48v316q55 3 89.5 34t34.5 91h-249v500zM46 0v434l158 25v618l-158 25v434h946v-434l-148 -25v-693q97 0 167 39.5t118 88.5h167v-512h-1250z" />
    <glyph glyph-name="lcaron" unicode="&#x13e;" horiz-adv-x="1585" 
d="M1003 1408h540v-431q0 -195 -119.5 -288.5t-312.5 -93.5v273q47 2 77 29t30 79h-215v432zM66 0v399l120 23v569l-120 23v394h842v-394l-121 -23v-607q88 0 151.5 40t104.5 88h167v-512h-1144z" />
    <glyph glyph-name="Lslash" unicode="&#x141;" horiz-adv-x="1353" 
d="M74 0v434l128 25v181h-128v256h128v181l-128 25v434h896v-434l-128 -25v-181h172v-256h-172v-256q97 0 167 39.5t118 88.5h167v-512h-1220z" />
    <glyph glyph-name="lslash" unicode="&#x142;" horiz-adv-x="1279" 
d="M76 0v399l120 23v218h-120v256h120v95l-120 23v399h842v-399l-121 -23v-95h89v-256h-89v-256q88 0 151.5 40t104.5 88h167v-512h-1144z" />
    <glyph glyph-name="Nacute" unicode="&#x143;" horiz-adv-x="2006" 
d="M81 0v434l156 25v618l-156 25v434h796l512 -787v326l-128 27v434h668v-434l-156 -25v-1077h-641l-511 749v-290l128 -24v-435h-668zM831 1680l339 640h490l-404 -640h-425z" />
    <glyph glyph-name="nacute" unicode="&#x144;" horiz-adv-x="1820" 
d="M66 0v399l120 23v569l-120 23v394h722l481 -759v340l-120 25v394h601v-394l-120 -23v-569l120 -23v-399h-722l-481 739v-317l121 -22v-400h-602zM738 1552l339 640h490l-404 -640h-425z" />
    <glyph glyph-name="uni0145" unicode="&#x145;" horiz-adv-x="2006" 
d="M81 0v434l156 25v618l-156 25v434h796l512 -787v326l-128 27v434h668v-434l-156 -25v-1077h-641l-511 749v-290l128 -24v-435h-668zM843 -976v270q47 3 76.5 29.5t29.5 77.5h-213v427h534v-426q0 -193 -118.5 -285.5t-308.5 -92.5z" />
    <glyph glyph-name="uni0146" unicode="&#x146;" horiz-adv-x="1820" 
d="M66 0v399l120 23v569l-120 23v394h722l481 -759v340l-120 25v394h601v-394l-120 -23v-569l120 -23v-399h-722l-481 739v-317l121 -22v-400h-602zM750 -976v270q47 3 76.5 29.5t29.5 77.5h-213v427h534v-426q0 -193 -118.5 -285.5t-308.5 -92.5z" />
    <glyph glyph-name="Ncaron" unicode="&#x147;" horiz-adv-x="2006" 
d="M81 0v434l156 25v618l-156 25v434h796l512 -787v326l-128 27v434h668v-434l-156 -25v-1077h-641l-511 749v-290l128 -24v-435h-668zM758 1681l-340 639h425l160 -383l159 383h425l-339 -639h-490z" />
    <glyph glyph-name="ncaron" unicode="&#x148;" horiz-adv-x="1820" 
d="M66 0v399l120 23v569l-120 23v394h722l481 -759v340l-120 25v394h601v-394l-120 -23v-569l120 -23v-399h-722l-481 739v-317l121 -22v-400h-602zM665 1553l-340 639h425l160 -383l159 383h425l-339 -639h-490z" />
    <glyph glyph-name="Ohungarumlaut" unicode="&#x150;" horiz-adv-x="1928" 
d="M963 -18q-277 0 -478 85.5t-309 263.5t-108 455q0 267 112.5 438t314.5 253t468 82q267 0 469 -82t315 -253t113 -438q0 -275 -110 -453.5t-311.5 -264.5t-475.5 -86zM963 465q148 0 202.5 88t54.5 233q0 146 -55 231t-202 85t-201 -85t-54 -231q0 -145 53.5 -233
t201.5 -88zM1075 1682l405 640h490l-460 -640h-435zM437 1682l249 640h490l-334 -640h-405z" />
    <glyph glyph-name="ohungarumlaut" unicode="&#x151;" horiz-adv-x="1749" 
d="M875 -18q-256 0 -445 78t-292.5 242t-103.5 421q0 252 106 411.5t295.5 235.5t439.5 76t440 -76t296.5 -235.5t106.5 -411.5q0 -257 -103 -421t-292 -242t-448 -78zM875 418q140 0 191 84t51 221t-51.5 217t-190.5 80q-136 0 -187.5 -78t-51.5 -214q0 -139 48.5 -224.5
t190.5 -85.5zM986 1554l405 640h490l-460 -640h-435zM348 1554l249 640h490l-334 -640h-405z" />
    <glyph glyph-name="OE" unicode="&#x152;" horiz-adv-x="2494" 
d="M930 -40q-276 0 -476.5 91t-309.5 274.5t-109 460.5q0 272 111 446.5t312 259t472 84.5q185 0 336 -40h1156v-552q-118 48 -268.5 69.5t-326.5 21.5v-196l294 65v-354l-294 65v-196q173 0 320 19t269 62v-540h-1159q-147 -40 -327 -40zM930 465q150 0 257 27v568
q-101 42 -257 42q-147 0 -201 -85t-54 -231q0 -145 53.5 -233t201.5 -88z" />
    <glyph glyph-name="oe" unicode="&#x153;" horiz-adv-x="2346" 
d="M875 -37q-256 0 -445 82.5t-292.5 251.5t-103.5 426q0 253 105.5 413.5t295 237t440.5 76.5q181 0 335 -42h1060v-512h-167q-69 50 -168.5 80t-218.5 30v-217l276 59v-285l-276 60v-221q120 0 220 29t167 81h167v-512h-1087q-139 -37 -308 -37zM875 428q75 0 133 7
t106 23v529q-52 14 -111.5 20.5t-127.5 6.5q-136 0 -187.5 -77.5t-51.5 -211.5q0 -136 50.5 -216.5t188.5 -80.5z" />
    <glyph glyph-name="Racute" unicode="&#x154;" horiz-adv-x="1807" 
d="M40 0v434l158 25v618l-158 25v434h901q165 0 309 -14.5t252.5 -62t169.5 -144t61 -260.5q0 -121 -38.5 -197.5t-107 -123.5t-158.5 -83q77 -124 158 -227.5t146 -172.5v-251h-636q-154 271 -224 549h-35v-549h-798zM838 844q77 0 134.5 11.5t89.5 49t32 114.5t-32 114.5
t-89.5 50t-134.5 12.5v-352zM732 1680l339 640h490l-404 -640h-425z" />
    <glyph glyph-name="racute" unicode="&#x155;" horiz-adv-x="1691" 
d="M66 0v399l120 23v569l-120 23v394h819q130 0 253 -9t225 -40t169.5 -94t86.5 -171q10 -56 10 -123q0 -113 -36.5 -183t-100.5 -113t-149 -76q50 -99 133 -193.5t153 -174.5v-231h-598q-61 114 -118.5 238.5t-91.5 266.5h-33v-505h-722zM788 776q115 0 178 33t63 148
t-63.5 149t-177.5 34v-364zM674 1552l339 640h490l-404 -640h-425z" />
    <glyph glyph-name="Rcaron" unicode="&#x158;" horiz-adv-x="1807" 
d="M40 0v434l158 25v618l-158 25v434h901q165 0 309 -14.5t252.5 -62t169.5 -144t61 -260.5q0 -121 -38.5 -197.5t-107 -123.5t-158.5 -83q77 -124 158 -227.5t146 -172.5v-251h-636q-154 271 -224 549h-35v-549h-798zM838 844q77 0 134.5 11.5t89.5 49t32 114.5t-32 114.5
t-89.5 50t-134.5 12.5v-352zM659 1681l-340 639h425l160 -383l159 383h425l-339 -639h-490z" />
    <glyph glyph-name="rcaron" unicode="&#x159;" horiz-adv-x="1691" 
d="M66 0v399l120 23v569l-120 23v394h819q130 0 253 -9t225 -40t169.5 -94t86.5 -171q10 -56 10 -123q0 -113 -36.5 -183t-100.5 -113t-149 -76q50 -99 133 -193.5t153 -174.5v-231h-598q-61 114 -118.5 238.5t-91.5 266.5h-33v-505h-722zM788 776q115 0 178 33t63 148
t-63.5 149t-177.5 34v-364zM601 1553l-340 639h425l160 -383l159 383h425l-339 -639h-490z" />
    <glyph glyph-name="Sacute" unicode="&#x15a;" horiz-adv-x="1444" 
d="M702 -18q-186 0 -343.5 24.5t-288.5 92.5v395h301q42 -58 103.5 -99t148.5 -41q70 0 99 37.5t29 110.5q-135 12 -259.5 42t-222.5 88.5t-155 156t-57 244.5q0 197 87.5 310t241 161t350.5 48q195 0 345 -30t277 -89v-390h-301q-40 57 -99 98.5t-143 41.5
q-70 0 -101 -42.5t-31 -116.5q153 -5 282.5 -32t225 -87.5t148 -163t52.5 -259.5q0 -143 -53 -239.5t-147 -153.5t-219 -82t-270 -25zM550 1680l339 640h490l-404 -640h-425z" />
    <glyph glyph-name="sacute" unicode="&#x15b;" horiz-adv-x="1336" 
d="M647 -18q-180 0 -315.5 24t-248.5 81v347h283q33 -52 83.5 -90t123.5 -38q71 0 95.5 45t24.5 121q-124 11 -241 37t-209.5 78t-147 140t-54.5 223q0 186 82.5 294.5t227 155t328.5 46.5q175 0 312.5 -31.5t252.5 -84.5v-350h-303q-28 54 -73 96t-114 42q-73 0 -99 -54
t-26 -132q141 -5 262 -28.5t212 -77t141.5 -146.5t50.5 -237q0 -181 -86 -281t-232.5 -140t-329.5 -40zM496 1552l339 640h490l-404 -640h-425z" />
    <glyph glyph-name="Scedilla" unicode="&#x15e;" horiz-adv-x="1444" 
d="M702 -18q-186 0 -343.5 24.5t-288.5 92.5v395h301q42 -58 103.5 -99t148.5 -41q70 0 99 37.5t29 110.5q-135 12 -259.5 42t-222.5 88.5t-155 156t-57 244.5q0 197 87.5 310t241 161t350.5 48q195 0 345 -30t277 -89v-390h-301q-40 57 -99 98.5t-143 41.5
q-70 0 -101 -42.5t-31 -116.5q153 -5 282.5 -32t225 -87.5t148 -163t52.5 -259.5q0 -143 -53 -239.5t-147 -153.5t-219 -82t-270 -25zM849 -886q-68 0 -130 12.5t-118 31.5v190q49 -15 100 -26.5t103 -11.5q136 0 136 131q0 56 -32.5 93.5t-86.5 37.5q-34 0 -58 -17t-40 -40
h-122v496h221v-257q126 11 210 -33.5t126 -116t42 -143.5q0 -176 -95 -261.5t-256 -85.5z" />
    <glyph glyph-name="scedilla" unicode="&#x15f;" horiz-adv-x="1336" 
d="M647 -18q-180 0 -315.5 24t-248.5 81v347h283q33 -52 83.5 -90t123.5 -38q71 0 95.5 45t24.5 121q-124 11 -241 37t-209.5 78t-147 140t-54.5 223q0 186 82.5 294.5t227 155t328.5 46.5q175 0 312.5 -31.5t252.5 -84.5v-350h-303q-28 54 -73 96t-114 42q-73 0 -99 -54
t-26 -132q141 -5 262 -28.5t212 -77t141.5 -146.5t50.5 -237q0 -181 -86 -281t-232.5 -140t-329.5 -40zM765 -886q-68 0 -130 12.5t-118 31.5v190q49 -15 100 -26.5t103 -11.5q136 0 136 131q0 56 -32.5 93.5t-86.5 37.5q-34 0 -58 -17t-40 -40h-122v496h221v-257
q126 11 210 -33.5t126 -116t42 -143.5q0 -176 -95 -261.5t-256 -85.5z" />
    <glyph glyph-name="Scaron" unicode="&#x160;" horiz-adv-x="1444" 
d="M702 -18q-186 0 -343.5 24.5t-288.5 92.5v395h301q42 -58 103.5 -99t148.5 -41q70 0 99 37.5t29 110.5q-135 12 -259.5 42t-222.5 88.5t-155 156t-57 244.5q0 197 87.5 310t241 161t350.5 48q195 0 345 -30t277 -89v-390h-301q-40 57 -99 98.5t-143 41.5
q-70 0 -101 -42.5t-31 -116.5q153 -5 282.5 -32t225 -87.5t148 -163t52.5 -259.5q0 -143 -53 -239.5t-147 -153.5t-219 -82t-270 -25zM477 1681l-340 639h425l160 -383l159 383h425l-339 -639h-490z" />
    <glyph glyph-name="scaron" unicode="&#x161;" horiz-adv-x="1336" 
d="M647 -18q-180 0 -315.5 24t-248.5 81v347h283q33 -52 83.5 -90t123.5 -38q71 0 95.5 45t24.5 121q-124 11 -241 37t-209.5 78t-147 140t-54.5 223q0 186 82.5 294.5t227 155t328.5 46.5q175 0 312.5 -31.5t252.5 -84.5v-350h-303q-28 54 -73 96t-114 42q-73 0 -99 -54
t-26 -132q141 -5 262 -28.5t212 -77t141.5 -146.5t50.5 -237q0 -181 -86 -281t-232.5 -140t-329.5 -40zM423 1553l-340 639h425l160 -383l159 383h425l-339 -639h-490z" />
    <glyph glyph-name="uni0162" unicode="&#x162;" horiz-adv-x="1564" 
d="M304 0v434l158 25v693q-79 0 -130 -41.5t-86 -86.5h-168v512h1408v-512h-168q-34 45 -85.5 86.5t-130.5 41.5v-693l158 -25v-434h-956zM909 -886q-68 0 -130 12.5t-118 31.5v190q49 -15 100 -26.5t103 -11.5q136 0 136 131q0 56 -32.5 93.5t-86.5 37.5q-34 0 -58 -17
t-40 -40h-122v496h221v-257q126 11 210 -33.5t126 -116t42 -143.5q0 -176 -95 -261.5t-256 -85.5z" />
    <glyph glyph-name="uni0163" unicode="&#x163;" horiz-adv-x="1485" 
d="M319 0v399l120 23v614q-49 0 -98.5 -16t-82.5 -47t-33 -77h-167v512h1364v-512h-167q0 46 -33.5 77t-82.5 47t-98 16v-614l120 -23v-399h-842zM870 -886q-68 0 -130 12.5t-118 31.5v190q49 -15 100 -26.5t103 -11.5q136 0 136 131q0 56 -32.5 93.5t-86.5 37.5
q-34 0 -58 -17t-40 -40h-122v496h221v-257q126 11 210 -33.5t126 -116t42 -143.5q0 -176 -95 -261.5t-256 -85.5z" />
    <glyph glyph-name="Tcaron" unicode="&#x164;" horiz-adv-x="1564" 
d="M304 0v434l158 25v693q-79 0 -130 -41.5t-86 -86.5h-168v512h1408v-512h-168q-34 45 -85.5 86.5t-130.5 41.5v-693l158 -25v-434h-956zM537 1681l-340 639h425l160 -383l159 383h425l-339 -639h-490z" />
    <glyph glyph-name="tcaron" unicode="&#x165;" horiz-adv-x="1485" 
d="M319 0v399l120 23v614q-49 0 -98.5 -16t-82.5 -47t-33 -77h-167v512h1364v-512h-167q0 46 -33.5 77t-82.5 47t-98 16v-614l120 -23v-399h-842zM498 1553l-340 639h425l160 -383l159 383h425l-339 -639h-490z" />
    <glyph glyph-name="Umacron" unicode="&#x16a;" horiz-adv-x="1975" 
d="M1041 -18q-268 0 -455 76.5t-285 242t-98 433.5v343l-158 25v434h891v-434l-158 -25v-323q0 -145 54 -217t202 -72t202 72t54 217v323l-158 25v434h798v-434l-158 -25v-343q0 -371 -183 -561.5t-548 -190.5zM762 1684v216h512v-216h-512z" />
    <glyph glyph-name="umacron" unicode="&#x16b;" horiz-adv-x="1824" 
d="M952 -18q-371 0 -576 183.5t-205 557.5v268l-120 23v394h781v-394l-120 -23v-167q0 -21 0.5 -42t0.5 -40v-21q0 -135 51.5 -214t187.5 -79q137 0 189.5 79.5t52.5 215.5v23q0 18 -0.5 38.5t-0.5 41.5v165l-120 23v394h694v-394l-121 -23q-1 -15 -1 -29.5v-28.5v-210
q0 -352 -173 -546.5t-520 -194.5zM656 1556v216h512v-216h-512z" />
    <glyph glyph-name="Uring" unicode="&#x16e;" horiz-adv-x="1975" 
d="M1041 -18q-268 0 -455 76.5t-285 242t-98 433.5v343l-158 25v434h891v-434l-158 -25v-323q0 -145 54 -217t202 -72t202 72t54 217v323l-158 25v434h798v-434l-158 -25v-343q0 -371 -183 -561.5t-548 -190.5zM1017 1694q-117 0 -207.5 47.5t-142 135.5t-51.5 207
t51.5 205.5t142 133.5t207.5 47q118 0 208.5 -47t142.5 -133.5t52 -205.5q0 -120 -51.5 -207.5t-142 -135t-209.5 -47.5zM1018 1882q82 0 127.5 56.5t45.5 140.5q0 83 -46.5 139t-127.5 56t-126.5 -56t-45.5 -139q0 -85 45.5 -141t127.5 -56z" />
    <glyph glyph-name="uring" unicode="&#x16f;" horiz-adv-x="1824" 
d="M952 -18q-371 0 -576 183.5t-205 557.5v268l-120 23v394h781v-394l-120 -23v-167q0 -21 0.5 -42t0.5 -40v-21q0 -135 51.5 -214t187.5 -79q137 0 189.5 79.5t52.5 215.5v23q0 18 -0.5 38.5t-0.5 41.5v165l-120 23v394h694v-394l-121 -23q-1 -15 -1 -29.5v-28.5v-210
q0 -352 -173 -546.5t-520 -194.5zM911 1566q-117 0 -207.5 47.5t-142 135.5t-51.5 207t51.5 205.5t142 133.5t207.5 47q118 0 208.5 -47t142.5 -133.5t52 -205.5q0 -120 -51.5 -207.5t-142 -135t-209.5 -47.5zM912 1754q82 0 127.5 56.5t45.5 140.5q0 83 -46.5 139
t-127.5 56t-126.5 -56t-45.5 -139q0 -85 45.5 -141t127.5 -56z" />
    <glyph glyph-name="Uhungarumlaut" unicode="&#x170;" horiz-adv-x="1975" 
d="M1041 -18q-268 0 -455 76.5t-285 242t-98 433.5v343l-158 25v434h891v-434l-158 -25v-323q0 -145 54 -217t202 -72t202 72t54 217v323l-158 25v434h798v-434l-158 -25v-343q0 -371 -183 -561.5t-548 -190.5zM1129 1682l405 640h490l-460 -640h-435zM491 1682l249 640h490
l-334 -640h-405z" />
    <glyph glyph-name="uhungarumlaut" unicode="&#x171;" horiz-adv-x="1824" 
d="M952 -18q-371 0 -576 183.5t-205 557.5v268l-120 23v394h781v-394l-120 -23v-167q0 -21 0.5 -42t0.5 -40v-21q0 -135 51.5 -214t187.5 -79q137 0 189.5 79.5t52.5 215.5v23q0 18 -0.5 38.5t-0.5 41.5v165l-120 23v394h694v-394l-121 -23q-1 -15 -1 -29.5v-28.5v-210
q0 -352 -173 -546.5t-520 -194.5zM1023 1554l405 640h490l-460 -640h-435zM385 1554l249 640h490l-334 -640h-405z" />
    <glyph glyph-name="Uogonek" unicode="&#x172;" horiz-adv-x="1975" 
d="M1041 -18q-268 0 -455 76.5t-285 242t-98 433.5v343l-158 25v434h891v-434l-158 -25v-323q0 -145 54 -217t202 -72t202 72t54 217v323l-158 25v434h798v-434l-158 -25v-343q0 -371 -183 -561.5t-548 -190.5zM1072 -886q-184 0 -283.5 99t-99.5 285q0 113 40.5 200
t86.5 157q56 83 128 155h334q-77 -75 -149.5 -165.5t-107.5 -203.5q-12 -37 -12 -73q0 -131 136 -131q66 0 183 38v-317q-55 -18 -121.5 -31t-134.5 -13z" />
    <glyph glyph-name="uogonek" unicode="&#x173;" horiz-adv-x="1824" 
d="M952 -18q-371 0 -576 183.5t-205 557.5v268l-120 23v394h781v-394l-120 -23v-167q0 -21 0.5 -42t0.5 -40v-21q0 -135 51.5 -214t187.5 -79q137 0 189.5 79.5t52.5 215.5v23q0 18 -0.5 38.5t-0.5 41.5v165l-120 23v394h694v-394l-121 -23q-1 -15 -1 -29.5v-28.5v-210
q0 -352 -173 -546.5t-520 -194.5zM986 -886q-184 0 -283.5 99t-99.5 285q0 113 40.5 200t86.5 157q56 83 128 155h334q-77 -75 -149.5 -165.5t-107.5 -203.5q-12 -37 -12 -73q0 -131 136 -131q66 0 183 38v-317q-55 -18 -121.5 -31t-134.5 -13z" />
    <glyph glyph-name="Wcircumflex" unicode="&#x174;" horiz-adv-x="3084" 
d="M638 -1l-409 1079l-182 24v434h1001v-434l-110 -24l173 -569l173 569l-110 24v434h971v-434l-110 -24l173 -569l173 569l-110 24v434h766v-434l-181 -24l-409 -1079h-712l-193 588l-192 -588h-712zM1097 1682l340 639h490l339 -639h-425l-159 383l-160 -383h-425z" />
    <glyph glyph-name="wcircumflex" unicode="&#x175;" horiz-adv-x="2865" 
d="M579 -1l-384 993l-143 22v394h913v-394l-104 -22l163 -524l163 524l-104 22v394h913v-394l-103 -22l162 -524l163 524l-104 22v399h692v-399l-142 -22l-384 -993h-669l-182 541l-180 -541h-670zM949 1554l340 639h490l339 -639h-425l-159 383l-160 -383h-425z" />
    <glyph glyph-name="Ycircumflex" unicode="&#x176;" horiz-adv-x="2067" 
d="M550 0v432l128 32l-439 614l-182 24v434h874v-434l-100 -24l203 -314l203 314l-100 24v434h883v-434l-191 -24l-439 -614l128 -32v-432h-968zM449 1682l340 639h490l339 -639h-425l-159 383l-160 -383h-425z" />
    <glyph glyph-name="ycircumflex" unicode="&#x177;" horiz-adv-x="1911" 
d="M499 0v397l120 30l-413 565l-152 22v394h803v-394l-94 -22l191 -289l190 289l-94 22v394h802v-394l-151 -22l-413 -565l121 -30v-397h-910zM371 1554l340 639h490l339 -639h-425l-159 383l-160 -383h-425z" />
    <glyph glyph-name="Ydieresis" unicode="&#x178;" horiz-adv-x="2067" 
d="M550 0v432l128 32l-439 614l-182 24v434h874v-434l-100 -24l203 -314l203 314l-100 24v434h883v-434l-191 -24l-439 -614l128 -32v-432h-968zM1193 1685v384h425v-384h-425zM449 1685v384h425v-384h-425z" />
    <glyph glyph-name="Zacute" unicode="&#x179;" horiz-adv-x="1393" 
d="M70 0v384l564 768q-112 0 -194.5 -38.5t-143.5 -89.5h-168v512h1190v-414l-504 -720q26 -3 49 -3q95 0 165.5 34.5t121.5 78.5h168v-512h-1248zM525 1680l339 640h490l-404 -640h-425z" />
    <glyph glyph-name="zacute" unicode="&#x17a;" horiz-adv-x="1261" 
d="M46 0v352l517 703q-102 0 -178.5 -34.5t-131.5 -82.5h-154v470h1090v-380l-461 -660q23 -3 44 -3q87 0 151.5 32t111.5 72h154v-469h-1143zM459 1552l339 640h490l-404 -640h-425z" />
    <glyph glyph-name="Zdotaccent" unicode="&#x17b;" horiz-adv-x="1393" 
d="M70 0v384l564 768q-112 0 -194.5 -38.5t-143.5 -89.5h-168v512h1190v-414l-504 -720q26 -3 49 -3q95 0 165.5 34.5t121.5 78.5h168v-512h-1248zM377 1692v512h640v-512h-640z" />
    <glyph glyph-name="zdotaccent" unicode="&#x17c;" horiz-adv-x="1261" 
d="M46 0v352l517 703q-102 0 -178.5 -34.5t-131.5 -82.5h-154v470h1090v-380l-461 -660q23 -3 44 -3q87 0 151.5 32t111.5 72h154v-469h-1143zM311 1564v512h640v-512h-640z" />
    <glyph glyph-name="Zcaron" unicode="&#x17d;" horiz-adv-x="1393" 
d="M70 0v384l564 768q-112 0 -194.5 -38.5t-143.5 -89.5h-168v512h1190v-414l-504 -720q26 -3 49 -3q95 0 165.5 34.5t121.5 78.5h168v-512h-1248zM452 1681l-340 639h425l160 -383l159 383h425l-339 -639h-490z" />
    <glyph glyph-name="zcaron" unicode="&#x17e;" horiz-adv-x="1261" 
d="M46 0v352l517 703q-102 0 -178.5 -34.5t-131.5 -82.5h-154v470h1090v-380l-461 -660q23 -3 44 -3q87 0 151.5 32t111.5 72h154v-469h-1143zM386 1553l-340 639h425l160 -383l159 383h425l-339 -639h-490z" />
    <glyph glyph-name="florin" unicode="&#x192;" horiz-adv-x="1472" 
d="M493 -128q-119 0 -222 40t-166.5 119.5t-63.5 197.5q0 62 21 132h314q-2 -12 -3.5 -32t-1.5 -37q0 -23 5.5 -50.5t27.5 -27.5q19 0 27 33.5t10 77t2 73.5v410h-232l20 187h212q5 195 59.5 331t174.5 207.5t320 71.5q427 0 427 -441q0 -8 -0.5 -16.5t-0.5 -16.5h-317
q4 11 6 29t2 34q0 28 -7.5 59t-34.5 31t-34 -45t-7 -89v-155h249l-20 -187h-229v-396q0 -164 -65.5 -285.5t-186 -188t-286.5 -66.5z" />
    <glyph glyph-name="uni0200" unicode="&#x200;" horiz-adv-x="1817" 
d="M77 0v504l123 25l295 1007h826l296 -1007l123 -25v-504h-569l-54 258h-418l-53 -258h-569zM785 601h246l-123 579zM453 1682l-404 640h490l339 -640h-425zM1004 1682l-304 640h490l239 -640h-425z" />
    <glyph glyph-name="uni0201" unicode="&#x201;" horiz-adv-x="1671" 
d="M50 0v464l116 23l277 921h776l279 -921l115 -23v-464h-535l-50 237h-393l-50 -237h-535zM696 553h271l-136 553zM380 1554l-404 640h490l339 -640h-425zM931 1554l-304 640h490l239 -640h-425z" />
    <glyph glyph-name="uni0202" unicode="&#x202;" horiz-adv-x="1817" 
d="M77 0v504l123 25l295 1007h826l296 -1007l123 -25v-504h-569l-54 258h-418l-53 -258h-569zM785 601h246l-123 579zM507 1682q0 129 48 229.5t138 158t215 57.5q127 0 217 -57.5t138 -158t48 -229.5h-269q0 64 -35.5 108t-97.5 44q-63 0 -98 -43.5t-35 -108.5h-269z" />
    <glyph glyph-name="uni0203" unicode="&#x203;" horiz-adv-x="1671" 
d="M50 0v464l116 23l277 921h776l279 -921l115 -23v-464h-535l-50 237h-393l-50 -237h-535zM696 553h271l-136 553zM434 1554q0 129 48 229.5t138 158t215 57.5q127 0 217 -57.5t138 -158t48 -229.5h-269q0 64 -35.5 108t-97.5 44q-63 0 -98 -43.5t-35 -108.5h-269z" />
    <glyph glyph-name="uni0204" unicode="&#x204;" horiz-adv-x="1495" 
d="M48 0v434l158 25v616l-158 25v436h1367v-512h-161q-76 53 -176.5 90.5t-231.5 37.5v-273l300 65v-354l-300 65v-271q129 0 229 36.5t173 91.5h167v-512h-1367zM292 1682l-404 640h490l339 -640h-425zM843 1682l-304 640h490l239 -640h-425z" />
    <glyph glyph-name="uni0205" unicode="&#x205;" horiz-adv-x="1378" 
d="M66 0v399l120 23v567l-120 23v396h1236v-512h-137q-67 50 -164 80t-213 30v-217l277 59v-285l-277 60v-221q117 0 214.5 29t162.5 81h137v-512h-1236zM233 1554l-404 640h490l339 -640h-425zM784 1554l-304 640h490l239 -640h-425z" />
    <glyph glyph-name="uni0206" unicode="&#x206;" horiz-adv-x="1495" 
d="M48 0v434l158 25v616l-158 25v436h1367v-512h-161q-76 53 -176.5 90.5t-231.5 37.5v-273l300 65v-354l-300 65v-271q129 0 229 36.5t173 91.5h167v-512h-1367zM346 1682q0 129 48 229.5t138 158t215 57.5q127 0 217 -57.5t138 -158t48 -229.5h-269q0 64 -35.5 108
t-97.5 44q-63 0 -98 -43.5t-35 -108.5h-269z" />
    <glyph glyph-name="uni0207" unicode="&#x207;" horiz-adv-x="1378" 
d="M66 0v399l120 23v567l-120 23v396h1236v-512h-137q-67 50 -164 80t-213 30v-217l277 59v-285l-277 60v-221q117 0 214.5 29t162.5 81h137v-512h-1236zM287 1554q0 129 48 229.5t138 158t215 57.5q127 0 217 -57.5t138 -158t48 -229.5h-269q0 64 -35.5 108t-97.5 44
q-63 0 -98 -43.5t-35 -108.5h-269z" />
    <glyph glyph-name="uni0208" unicode="&#x208;" horiz-adv-x="1052" 
d="M48 0v434l158 25v618l-158 25v434h956v-434l-158 -25v-618l158 -25v-434h-956zM70 1682l-404 640h490l339 -640h-425zM621 1682l-304 640h490l239 -640h-425z" />
    <glyph glyph-name="uni0209" unicode="&#x209;" horiz-adv-x="978" 
d="M66 0v399l120 23v569l-120 23v394h842v-394l-120 -23v-569l120 -23v-399h-842zM33 1554l-404 640h490l339 -640h-425zM584 1554l-304 640h490l239 -640h-425z" />
    <glyph glyph-name="uni020A" unicode="&#x20a;" horiz-adv-x="1052" 
d="M48 0v434l158 25v618l-158 25v434h956v-434l-158 -25v-618l158 -25v-434h-956zM124 1682q0 129 48 229.5t138 158t215 57.5q127 0 217 -57.5t138 -158t48 -229.5h-269q0 64 -35.5 108t-97.5 44q-63 0 -98 -43.5t-35 -108.5h-269z" />
    <glyph glyph-name="uni020B" unicode="&#x20b;" horiz-adv-x="978" 
d="M66 0v399l120 23v569l-120 23v394h842v-394l-120 -23v-569l120 -23v-399h-842zM87 1554q0 129 48 229.5t138 158t215 57.5q127 0 217 -57.5t138 -158t48 -229.5h-269q0 64 -35.5 108t-97.5 44q-63 0 -98 -43.5t-35 -108.5h-269z" />
    <glyph glyph-name="uni020C" unicode="&#x20c;" horiz-adv-x="1928" 
d="M963 -18q-277 0 -478 85.5t-309 263.5t-108 455q0 267 112.5 438t314.5 253t468 82q267 0 469 -82t315 -253t113 -438q0 -275 -110 -453.5t-311.5 -264.5t-475.5 -86zM963 465q148 0 202.5 88t54.5 233q0 146 -55 231t-202 85t-201 -85t-54 -231q0 -145 53.5 -233
t201.5 -88zM508 1682l-404 640h490l339 -640h-425zM1059 1682l-304 640h490l239 -640h-425z" />
    <glyph glyph-name="uni020D" unicode="&#x20d;" horiz-adv-x="1749" 
d="M875 -18q-256 0 -445 78t-292.5 242t-103.5 421q0 252 106 411.5t295.5 235.5t439.5 76t440 -76t296.5 -235.5t106.5 -411.5q0 -257 -103 -421t-292 -242t-448 -78zM875 418q140 0 191 84t51 221t-51.5 217t-190.5 80q-136 0 -187.5 -78t-51.5 -214q0 -139 48.5 -224.5
t190.5 -85.5zM419 1554l-404 640h490l339 -640h-425zM970 1554l-304 640h490l239 -640h-425z" />
    <glyph glyph-name="uni020E" unicode="&#x20e;" horiz-adv-x="1928" 
d="M963 -18q-277 0 -478 85.5t-309 263.5t-108 455q0 267 112.5 438t314.5 253t468 82q267 0 469 -82t315 -253t113 -438q0 -275 -110 -453.5t-311.5 -264.5t-475.5 -86zM963 465q148 0 202.5 88t54.5 233q0 146 -55 231t-202 85t-201 -85t-54 -231q0 -145 53.5 -233
t201.5 -88zM562 1682q0 129 48 229.5t138 158t215 57.5q127 0 217 -57.5t138 -158t48 -229.5h-269q0 64 -35.5 108t-97.5 44q-63 0 -98 -43.5t-35 -108.5h-269z" />
    <glyph glyph-name="uni020F" unicode="&#x20f;" horiz-adv-x="1749" 
d="M875 -18q-256 0 -445 78t-292.5 242t-103.5 421q0 252 106 411.5t295.5 235.5t439.5 76t440 -76t296.5 -235.5t106.5 -411.5q0 -257 -103 -421t-292 -242t-448 -78zM875 418q140 0 191 84t51 221t-51.5 217t-190.5 80q-136 0 -187.5 -78t-51.5 -214q0 -139 48.5 -224.5
t190.5 -85.5zM473 1554q0 129 48 229.5t138 158t215 57.5q127 0 217 -57.5t138 -158t48 -229.5h-269q0 64 -35.5 108t-97.5 44q-63 0 -98 -43.5t-35 -108.5h-269z" />
    <glyph glyph-name="uni0210" unicode="&#x210;" horiz-adv-x="1807" 
d="M40 0v434l158 25v618l-158 25v434h901q165 0 309 -14.5t252.5 -62t169.5 -144t61 -260.5q0 -121 -38.5 -197.5t-107 -123.5t-158.5 -83q77 -124 158 -227.5t146 -172.5v-251h-636q-154 271 -224 549h-35v-549h-798zM838 844q77 0 134.5 11.5t89.5 49t32 114.5t-32 114.5
t-89.5 50t-134.5 12.5v-352zM448 1682l-404 640h490l339 -640h-425zM999 1682l-304 640h490l239 -640h-425z" />
    <glyph glyph-name="uni0211" unicode="&#x211;" horiz-adv-x="1691" 
d="M66 0v399l120 23v569l-120 23v394h819q130 0 253 -9t225 -40t169.5 -94t86.5 -171q10 -56 10 -123q0 -113 -36.5 -183t-100.5 -113t-149 -76q50 -99 133 -193.5t153 -174.5v-231h-598q-61 114 -118.5 238.5t-91.5 266.5h-33v-505h-722zM788 776q115 0 178 33t63 148
t-63.5 149t-177.5 34v-364zM390 1554l-404 640h490l339 -640h-425zM941 1554l-304 640h490l239 -640h-425z" />
    <glyph glyph-name="uni0212" unicode="&#x212;" horiz-adv-x="1807" 
d="M40 0v434l158 25v618l-158 25v434h901q165 0 309 -14.5t252.5 -62t169.5 -144t61 -260.5q0 -121 -38.5 -197.5t-107 -123.5t-158.5 -83q77 -124 158 -227.5t146 -172.5v-251h-636q-154 271 -224 549h-35v-549h-798zM838 844q77 0 134.5 11.5t89.5 49t32 114.5t-32 114.5
t-89.5 50t-134.5 12.5v-352zM502 1682q0 129 48 229.5t138 158t215 57.5q127 0 217 -57.5t138 -158t48 -229.5h-269q0 64 -35.5 108t-97.5 44q-63 0 -98 -43.5t-35 -108.5h-269z" />
    <glyph glyph-name="uni0213" unicode="&#x213;" horiz-adv-x="1691" 
d="M66 0v399l120 23v569l-120 23v394h819q130 0 253 -9t225 -40t169.5 -94t86.5 -171q10 -56 10 -123q0 -113 -36.5 -183t-100.5 -113t-149 -76q50 -99 133 -193.5t153 -174.5v-231h-598q-61 114 -118.5 238.5t-91.5 266.5h-33v-505h-722zM788 776q115 0 178 33t63 148
t-63.5 149t-177.5 34v-364zM444 1554q0 129 48 229.5t138 158t215 57.5q127 0 217 -57.5t138 -158t48 -229.5h-269q0 64 -35.5 108t-97.5 44q-63 0 -98 -43.5t-35 -108.5h-269z" />
    <glyph glyph-name="uni0214" unicode="&#x214;" horiz-adv-x="1975" 
d="M1041 -18q-268 0 -455 76.5t-285 242t-98 433.5v343l-158 25v434h891v-434l-158 -25v-323q0 -145 54 -217t202 -72t202 72t54 217v323l-158 25v434h798v-434l-158 -25v-343q0 -371 -183 -561.5t-548 -190.5zM562 1682l-404 640h490l339 -640h-425zM1113 1682l-304 640
h490l239 -640h-425z" />
    <glyph glyph-name="uni0215" unicode="&#x215;" horiz-adv-x="1824" 
d="M952 -18q-371 0 -576 183.5t-205 557.5v268l-120 23v394h781v-394l-120 -23v-167q0 -21 0.5 -42t0.5 -40v-21q0 -135 51.5 -214t187.5 -79q137 0 189.5 79.5t52.5 215.5v23q0 18 -0.5 38.5t-0.5 41.5v165l-120 23v394h694v-394l-121 -23q-1 -15 -1 -29.5v-28.5v-210
q0 -352 -173 -546.5t-520 -194.5zM456 1554l-404 640h490l339 -640h-425zM1007 1554l-304 640h490l239 -640h-425z" />
    <glyph glyph-name="uni0216" unicode="&#x216;" horiz-adv-x="1975" 
d="M1041 -18q-268 0 -455 76.5t-285 242t-98 433.5v343l-158 25v434h891v-434l-158 -25v-323q0 -145 54 -217t202 -72t202 72t54 217v323l-158 25v434h798v-434l-158 -25v-343q0 -371 -183 -561.5t-548 -190.5zM616 1682q0 129 48 229.5t138 158t215 57.5q127 0 217 -57.5
t138 -158t48 -229.5h-269q0 64 -35.5 108t-97.5 44q-63 0 -98 -43.5t-35 -108.5h-269z" />
    <glyph glyph-name="uni0217" unicode="&#x217;" horiz-adv-x="1824" 
d="M952 -18q-371 0 -576 183.5t-205 557.5v268l-120 23v394h781v-394l-120 -23v-167q0 -21 0.5 -42t0.5 -40v-21q0 -135 51.5 -214t187.5 -79q137 0 189.5 79.5t52.5 215.5v23q0 18 -0.5 38.5t-0.5 41.5v165l-120 23v394h694v-394l-121 -23q-1 -15 -1 -29.5v-28.5v-210
q0 -352 -173 -546.5t-520 -194.5zM510 1554q0 129 48 229.5t138 158t215 57.5q127 0 217 -57.5t138 -158t48 -229.5h-269q0 64 -35.5 108t-97.5 44q-63 0 -98 -43.5t-35 -108.5h-269z" />
    <glyph glyph-name="uni0218" unicode="&#x218;" horiz-adv-x="1444" 
d="M702 -18q-186 0 -343.5 24.5t-288.5 92.5v395h301q42 -58 103.5 -99t148.5 -41q70 0 99 37.5t29 110.5q-135 12 -259.5 42t-222.5 88.5t-155 156t-57 244.5q0 197 87.5 310t241 161t350.5 48q195 0 345 -30t277 -89v-390h-301q-40 57 -99 98.5t-143 41.5
q-70 0 -101 -42.5t-31 -116.5q153 -5 282.5 -32t225 -87.5t148 -163t52.5 -259.5q0 -143 -53 -239.5t-147 -153.5t-219 -82t-270 -25zM562 -976v270q47 3 76.5 29.5t29.5 77.5h-213v427h534v-426q0 -193 -118.5 -285.5t-308.5 -92.5z" />
    <glyph glyph-name="uni0219" unicode="&#x219;" horiz-adv-x="1336" 
d="M647 -18q-180 0 -315.5 24t-248.5 81v347h283q33 -52 83.5 -90t123.5 -38q71 0 95.5 45t24.5 121q-124 11 -241 37t-209.5 78t-147 140t-54.5 223q0 186 82.5 294.5t227 155t328.5 46.5q175 0 312.5 -31.5t252.5 -84.5v-350h-303q-28 54 -73 96t-114 42q-73 0 -99 -54
t-26 -132q141 -5 262 -28.5t212 -77t141.5 -146.5t50.5 -237q0 -181 -86 -281t-232.5 -140t-329.5 -40zM478 -976v270q47 3 76.5 29.5t29.5 77.5h-213v427h534v-426q0 -193 -118.5 -285.5t-308.5 -92.5z" />
    <glyph glyph-name="uni021A" unicode="&#x21a;" horiz-adv-x="1564" 
d="M304 0v434l158 25v693q-79 0 -130 -41.5t-86 -86.5h-168v512h1408v-512h-168q-34 45 -85.5 86.5t-130.5 41.5v-693l158 -25v-434h-956zM622 -976v270q47 3 76.5 29.5t29.5 77.5h-213v427h534v-426q0 -193 -118.5 -285.5t-308.5 -92.5z" />
    <glyph glyph-name="uni021B" unicode="&#x21b;" horiz-adv-x="1485" 
d="M319 0v399l120 23v614q-49 0 -98.5 -16t-82.5 -47t-33 -77h-167v512h1364v-512h-167q0 46 -33.5 77t-82.5 47t-98 16v-614l120 -23v-399h-842zM583 -976v270q47 3 76.5 29.5t29.5 77.5h-213v427h534v-426q0 -193 -118.5 -285.5t-308.5 -92.5z" />
    <glyph glyph-name="uni0237" unicode="&#x237;" horiz-adv-x="1404" 
d="M589 -18q-173 0 -301.5 25t-236.5 80v431h283q27 -49 71.5 -89t108.5 -40q71 0 104.5 63t33.5 137v402l-121 23v394h843v-394l-121 -23v-402q0 -317 -173.5 -462t-490.5 -145z" />
    <glyph glyph-name="circumflex" unicode="&#x2c6;" horiz-adv-x="1338" 
d="M85 1559l340 639h490l339 -639h-425l-159 383l-160 -383h-425z" />
    <glyph glyph-name="caron" unicode="&#x2c7;" horiz-adv-x="1334" 
d="M423 1558l-340 639h425l160 -383l159 383h425l-339 -639h-490z" />
    <glyph glyph-name="breve" unicode="&#x2d8;" horiz-adv-x="899" 
d="M449 1535q-126 0 -215.5 58t-137.5 158.5t-48 228.5h269q0 -64 35 -108t98 -44q62 0 97.5 44t35.5 108h269q0 -129 -48 -229.5t-138.5 -158t-216.5 -57.5z" />
    <glyph glyph-name="dotaccent" unicode="&#x2d9;" horiz-adv-x="817" 
d="M89 1564v512h640v-512h-640z" />
    <glyph glyph-name="ring" unicode="&#x2da;" horiz-adv-x="899" 
d="M449 1536q-117 0 -207.5 47.5t-142 135.5t-51.5 207t51.5 205.5t142 133.5t207.5 47q118 0 208.5 -47t142.5 -133.5t52 -205.5q0 -120 -51.5 -207.5t-142 -135t-209.5 -47.5zM450 1724q82 0 127.5 56.5t45.5 140.5q0 83 -46.5 139t-127.5 56t-126.5 -56t-45.5 -139
q0 -85 45.5 -141t127.5 -56z" />
    <glyph glyph-name="ogonek" unicode="&#x2db;" horiz-adv-x="750" 
d="M437 -876q-184 0 -283.5 99t-99.5 285q0 113 40.5 200t86.5 157q56 83 128 155h334q-77 -75 -149.5 -165.5t-107.5 -203.5q-12 -37 -12 -73q0 -131 136 -131q66 0 183 38v-317q-55 -18 -121.5 -31t-134.5 -13z" />
    <glyph glyph-name="tilde" unicode="&#x2dc;" horiz-adv-x="1001" 
d="M58 1529l62 426q32 35 71.5 55t98.5 20q56 0 102 -17.5t89.5 -40t90 -40t103.5 -17.5q93 0 157 34t122 87l-60 -417q-26 -37 -65.5 -59t-95.5 -22q-74 0 -135 24t-121.5 48t-135.5 24q-91 0 -157 -28.5t-126 -76.5z" />
    <glyph glyph-name="hungarumlaut" unicode="&#x2dd;" horiz-adv-x="1701" 
d="M964 1554l405 640h490l-460 -640h-435zM326 1554l249 640h490l-334 -640h-405z" />
    <glyph glyph-name="gravecomb" unicode="&#x300;" 
d="M487 1558l-404 640h490l339 -640h-425z" />
    <glyph glyph-name="acutecomb" unicode="&#x301;" 
d="M85 1554l339 640h490l-404 -640h-425z" />
    <glyph glyph-name="uni0302" unicode="&#x302;" 
d="M85 1559l340 639h490l339 -639h-425l-159 383l-160 -383h-425z" />
    <glyph glyph-name="tildecomb" unicode="&#x303;" 
d="M58 1529l62 426q32 35 71.5 55t98.5 20q56 0 102 -17.5t89.5 -40t90 -40t103.5 -17.5q93 0 157 34t122 87l-60 -417q-26 -37 -65.5 -59t-95.5 -22q-74 0 -135 24t-121.5 48t-135.5 24q-91 0 -157 -28.5t-126 -76.5z" />
    <glyph glyph-name="uni0304" unicode="&#x304;" 
d="M60 1556v216h512v-216h-512z" />
    <glyph glyph-name="uni0306" unicode="&#x306;" 
d="M449 1535q-126 0 -215.5 58t-137.5 158.5t-48 228.5h269q0 -64 35 -108t98 -44q62 0 97.5 44t35.5 108h269q0 -129 -48 -229.5t-138.5 -158t-216.5 -57.5z" />
    <glyph glyph-name="uni0307" unicode="&#x307;" 
d="M89 1564v512h640v-512h-640z" />
    <glyph glyph-name="uni0308" unicode="&#x308;" 
d="M833 1562v384h425v-384h-425zM89 1562v384h425v-384h-425z" />
    <glyph glyph-name="uni030A" unicode="&#x30a;" 
d="M449 1536q-117 0 -207.5 47.5t-142 135.5t-51.5 207t51.5 205.5t142 133.5t207.5 47q118 0 208.5 -47t142.5 -133.5t52 -205.5q0 -120 -51.5 -207.5t-142 -135t-209.5 -47.5zM450 1724q82 0 127.5 56.5t45.5 140.5q0 83 -46.5 139t-127.5 56t-126.5 -56t-45.5 -139
q0 -85 45.5 -141t127.5 -56z" />
    <glyph glyph-name="uni030B" unicode="&#x30b;" 
d="M964 1554l405 640h490l-460 -640h-435zM326 1554l249 640h490l-334 -640h-405z" />
    <glyph glyph-name="uni030C" unicode="&#x30c;" 
d="M423 1558l-340 639h425l160 -383l159 383h425l-339 -639h-490z" />
    <glyph glyph-name="uni030F" unicode="&#x30f;" 
d="M297 1559l-404 640h490l339 -640h-425zM848 1559l-304 640h490l239 -640h-425z" />
    <glyph glyph-name="uni0311" unicode="&#x311;" 
d="M58 1559q0 129 48 229.5t138 158t215 57.5q127 0 217 -57.5t138 -158t48 -229.5h-269q0 64 -35.5 108t-97.5 44q-63 0 -98 -43.5t-35 -108.5h-269z" />
    <glyph glyph-name="uni0326" unicode="&#x326;" 
d="M220 -976v270q47 3 76.5 29.5t29.5 77.5h-213v427h534v-426q0 -193 -118.5 -285.5t-308.5 -92.5z" />
    <glyph glyph-name="uni0327" unicode="&#x327;" 
d="M320 -769q-68 0 -130 12.5t-118 31.5v190q49 -15 100 -26.5t103 -11.5q136 0 136 131q0 56 -32.5 93.5t-86.5 37.5q-34 0 -58 -17t-40 -40h-122v496h221v-257q126 11 210 -33.5t126 -116t42 -143.5q0 -176 -95 -261.5t-256 -85.5z" />
    <glyph glyph-name="uni0328" unicode="&#x328;" 
d="M437 -876q-184 0 -283.5 99t-99.5 285q0 113 40.5 200t86.5 157q56 83 128 155h334q-77 -75 -149.5 -165.5t-107.5 -203.5q-12 -37 -12 -73q0 -131 136 -131q66 0 183 38v-317q-55 -18 -121.5 -31t-134.5 -13z" />
    <glyph glyph-name="uni0394" unicode="&#x394;" horiz-adv-x="1424" 
d="M31 0l286 1171h746l300 -1171h-1332zM560 216h271l-136 653z" />
    <glyph glyph-name="uni03BC" unicode="&#x3bc;" horiz-adv-x="1831" 
d="M177 -255v1246l-120 23v394h781v-394l-119 -23v-450q38 -46 96 -79.5t143 -33.5q137 0 189 79.5t52 215.5v268l-120 23v394h694v-394l-121 -23v-268q0 -228 -71 -399t-215.5 -266.5t-367.5 -95.5q-96 0 -169.5 22.5t-138.5 61.5v-301h-513z" />
    <glyph glyph-name="Wgrave" unicode="&#x1e80;" horiz-adv-x="3084" 
d="M638 -1l-409 1079l-182 24v434h1001v-434l-110 -24l173 -569l173 569l-110 24v434h971v-434l-110 -24l173 -569l173 569l-110 24v434h766v-434l-181 -24l-409 -1079h-712l-193 588l-192 -588h-712zM1521 1681l-404 640h490l339 -640h-425z" />
    <glyph glyph-name="wgrave" unicode="&#x1e81;" horiz-adv-x="2865" 
d="M579 -1l-384 993l-143 22v394h913v-394l-104 -22l163 -524l163 524l-104 22v394h913v-394l-103 -22l162 -524l163 524l-104 22v399h692v-399l-142 -22l-384 -993h-669l-182 541l-180 -541h-670zM1373 1553l-404 640h490l339 -640h-425z" />
    <glyph glyph-name="Wacute" unicode="&#x1e82;" horiz-adv-x="3084" 
d="M638 -1l-409 1079l-182 24v434h1001v-434l-110 -24l173 -569l173 569l-110 24v434h971v-434l-110 -24l173 -569l173 569l-110 24v434h766v-434l-181 -24l-409 -1079h-712l-193 588l-192 -588h-712zM1510 1680l339 640h490l-404 -640h-425z" />
    <glyph glyph-name="wacute" unicode="&#x1e83;" horiz-adv-x="2865" 
d="M579 -1l-384 993l-143 22v394h913v-394l-104 -22l163 -524l163 524l-104 22v394h913v-394l-103 -22l162 -524l163 524l-104 22v399h692v-399l-142 -22l-384 -993h-669l-182 541l-180 -541h-670zM1362 1552l339 640h490l-404 -640h-425z" />
    <glyph glyph-name="Wdieresis" unicode="&#x1e84;" horiz-adv-x="3084" 
d="M638 -1l-409 1079l-182 24v434h1001v-434l-110 -24l173 -569l173 569l-110 24v434h971v-434l-110 -24l173 -569l173 569l-110 24v434h766v-434l-181 -24l-409 -1079h-712l-193 588l-192 -588h-712zM1841 1685v384h425v-384h-425zM1097 1685v384h425v-384h-425z" />
    <glyph glyph-name="wdieresis" unicode="&#x1e85;" horiz-adv-x="2865" 
d="M579 -1l-384 993l-143 22v394h913v-394l-104 -22l163 -524l163 524l-104 22v394h913v-394l-103 -22l162 -524l163 524l-104 22v399h692v-399l-142 -22l-384 -993h-669l-182 541l-180 -541h-670zM1693 1557v384h425v-384h-425zM949 1557v384h425v-384h-425z" />
    <glyph glyph-name="uni1E9E" unicode="&#x1e9e;" horiz-adv-x="2888" 
d="M702 -18q-186 0 -343.5 24.5t-288.5 92.5v395h301q42 -58 103.5 -99t148.5 -41q70 0 99 37.5t29 110.5q-135 12 -259.5 42t-222.5 88.5t-155 156t-57 244.5q0 197 87.5 310t241 161t350.5 48q195 0 345 -30t277 -89v-390h-301q-40 57 -99 98.5t-143 41.5
q-70 0 -101 -42.5t-31 -116.5q153 -5 282.5 -32t225 -87.5t148 -163t52.5 -259.5q0 -143 -53 -239.5t-147 -153.5t-219 -82t-270 -25zM2146 -18q-186 0 -343.5 24.5t-288.5 92.5v395h301q42 -58 103.5 -99t148.5 -41q70 0 99 37.5t29 110.5q-135 12 -259.5 42t-222.5 88.5
t-155 156t-57 244.5q0 197 87.5 310t241 161t350.5 48q195 0 345 -30t277 -89v-390h-301q-40 57 -99 98.5t-143 41.5q-70 0 -101 -42.5t-31 -116.5q153 -5 282.5 -32t225 -87.5t148 -163t52.5 -259.5q0 -143 -53 -239.5t-147 -153.5t-219 -82t-270 -25z" />
    <glyph glyph-name="Ygrave" unicode="&#x1ef2;" horiz-adv-x="2067" 
d="M550 0v432l128 32l-439 614l-182 24v434h874v-434l-100 -24l203 -314l203 314l-100 24v434h883v-434l-191 -24l-439 -614l128 -32v-432h-968zM873 1681l-404 640h490l339 -640h-425z" />
    <glyph glyph-name="ygrave" unicode="&#x1ef3;" horiz-adv-x="1911" 
d="M499 0v397l120 30l-413 565l-152 22v394h803v-394l-94 -22l191 -289l190 289l-94 22v394h802v-394l-151 -22l-413 -565l121 -30v-397h-910zM795 1553l-404 640h490l339 -640h-425z" />
    <glyph glyph-name="endash" unicode="&#x2013;" horiz-adv-x="656" 
d="M71 640v256h512v-256h-512z" />
    <glyph glyph-name="emdash" unicode="&#x2014;" horiz-adv-x="842" 
d="M71 640v256h698v-256h-698z" />
    <glyph glyph-name="quoteleft" unicode="&#x2018;" horiz-adv-x="784" 
d="M73 640v511q0 149 67 242.5t183 138t262 44.5v-296q-58 -3 -92.5 -34.5t-34.5 -93.5h255v-512h-640z" />
    <glyph glyph-name="quoteright" unicode="&#x2019;" horiz-adv-x="773" 
d="M190 572v324q56 3 91.5 35t35.5 93h-255v512h640v-511q0 -154 -64.5 -254.5t-180 -149.5t-267.5 -49z" />
    <glyph glyph-name="quotesinglbase" unicode="&#x201a;" horiz-adv-x="780" 
d="M200 -452v324q56 3 91.5 35t35.5 93h-255v512h640v-511q0 -154 -64.5 -254.5t-180 -149.5t-267.5 -49z" />
    <glyph glyph-name="quotedblleft" unicode="&#x201c;" horiz-adv-x="1552" 
d="M841 640v511q0 149 67 242.5t183 138t262 44.5v-296q-58 -3 -92.5 -34.5t-34.5 -93.5h255v-512h-640zM73 640v511q0 149 67 242.5t183 138t262 44.5v-296q-58 -3 -92.5 -34.5t-34.5 -93.5h255v-512h-640z" />
    <glyph glyph-name="quotedblright" unicode="&#x201d;" horiz-adv-x="1541" 
d="M958 572v324q56 3 91.5 35t35.5 93h-255v512h640v-511q0 -154 -64.5 -254.5t-180 -149.5t-267.5 -49zM190 572v324q56 3 91.5 35t35.5 93h-255v512h640v-511q0 -154 -64.5 -254.5t-180 -149.5t-267.5 -49z" />
    <glyph glyph-name="quotedblbase" unicode="&#x201e;" horiz-adv-x="1548" 
d="M968 -452v324q56 3 91.5 35t35.5 93h-255v512h640v-511q0 -154 -64.5 -254.5t-180 -149.5t-267.5 -49zM200 -452v324q56 3 91.5 35t35.5 93h-255v512h640v-511q0 -154 -64.5 -254.5t-180 -149.5t-267.5 -49z" />
    <glyph glyph-name="dagger" unicode="&#x2020;" horiz-adv-x="1010" 
d="M312 320v640h-256v320h256v256h384v-256h256v-320h-256v-640h-384z" />
    <glyph glyph-name="daggerdbl" unicode="&#x2021;" horiz-adv-x="1045" 
d="M330 320v128h-256v320h256v192h-256v320h256v256h384v-256h256v-320h-256v-192h256v-320h-256v-128h-384z" />
    <glyph glyph-name="bullet" unicode="&#x2022;" horiz-adv-x="886" 
d="M442 286q-110 0 -196.5 42.5t-136.5 122t-50 190.5t50 189.5t137 120.5t196 42q110 0 197.5 -42t138 -120.5t50.5 -189.5t-50.5 -190.5t-138 -122t-197.5 -42.5z" />
    <glyph glyph-name="ellipsis" unicode="&#x2026;" horiz-adv-x="2556" 
d="M1847 0v512h640v-512h-640zM73 0v512h640v-512h-640zM960 0v512h640v-512h-640z" />
    <glyph glyph-name="perthousand" unicode="&#x2030;" horiz-adv-x="4830" 
d="M662 378q-291 0 -449 158.5t-158 453.5q0 290 160.5 437.5t446.5 147.5t447 -147.5t161 -437.5q0 -295 -158.5 -453.5t-449.5 -158.5zM1204 0l384 1536h640l-384 -1536h-640zM662 753q104 0 139 67.5t35 169.5t-35 168t-139 66q-103 0 -138 -65.5t-35 -168.5t35 -170
t138 -67zM2796 -42q-291 0 -449 158.5t-158 453.5q0 290 160.5 437.5t446.5 147.5t447 -147.5t161 -437.5q0 -295 -158.5 -453.5t-449.5 -158.5zM4168 -42q-291 0 -449 158.5t-158 453.5q0 290 160.5 437.5t446.5 147.5t447 -147.5t161 -437.5q0 -295 -158.5 -453.5
t-449.5 -158.5zM2796 333q104 0 139 67.5t35 169.5t-35 168t-139 66q-103 0 -138 -65.5t-35 -168.5t35 -170t138 -67zM4168 333q104 0 139 67.5t35 169.5t-35 168t-139 66q-103 0 -138 -65.5t-35 -168.5t35 -170t138 -67z" />
    <glyph glyph-name="guilsinglleft" unicode="&#x2039;" horiz-adv-x="885" 
d="M806 -17l-733 374v690l733 374v-632l-334 -162l334 -163v-481z" />
    <glyph glyph-name="guilsinglright" unicode="&#x203a;" horiz-adv-x="882" 
d="M78 -17v481l334 163l-334 162v632l733 -374v-690z" />
    <glyph glyph-name="fraction" unicode="&#x2044;" horiz-adv-x="1098" 
d="M37 0l384 1536h640l-384 -1536h-640z" />
    <glyph glyph-name="uni2074" unicode="&#x2074;" horiz-adv-x="1183" 
d="M398 512v293l87 17v90h-433v173l433 464l432 27v-491h216v-173h-216v-90l87 -17v-293h-606zM301 1085h184v216z" />
    <glyph glyph-name="Euro" unicode="&#x20ac;" horiz-adv-x="1639" 
d="M985 -40q-334 0 -536.5 163.5t-257.5 447.5h-135v166h117q-1 8 -1 24v50q0 16 1 24h-117v166h135q53 284 252.5 429.5t533.5 145.5q181 0 327 -35t265 -91v-477h-281q-36 66 -91.5 118t-140.5 52q-82 0 -142.5 -42.5t-95.5 -99.5h238v-166h-291q-1 -12 -1.5 -24t-0.5 -25
t0.5 -25.5t1.5 -23.5h291v-166h-246q76 -136 284 -136q129 0 246 35.5t229 81.5v-481q-133 -47 -276 -79t-308 -32z" />
    <glyph glyph-name="trademark" unicode="&#x2122;" horiz-adv-x="2378" 
d="M1035 640v253l75 14v362l-75 14v253h448l187 -344l187 344h448v-253l-75 -14v-362l75 -14v-253h-448v437l-187 -322l-187 322v-437h-448zM242 640v253l75 14v405q-46 0 -79.5 -24t-53.5 -51h-128v299h896v-299h-129q-22 27 -53 51t-80 24v-405l75 -14v-253h-523z" />
    <glyph glyph-name="minus" unicode="&#x2212;" horiz-adv-x="916" 
d="M74 512v384h768v-384h-768z" />
    <glyph glyph-name="integral" unicode="&#x222b;" horiz-adv-x="1476" 
d="M498 -128q-119 0 -222 40t-166.5 119.5t-63.5 197.5q0 62 21 132h314q-2 -12 -3.5 -32t-1.5 -37q0 -23 5.5 -50.5t27.5 -27.5q19 0 27 33.5t10 77t2 73.5v560q0 206 52.5 350.5t174 220.5t327.5 76q427 0 427 -441q0 -8 -0.5 -16.5t-0.5 -16.5h-317q4 11 6 29t2 34
q0 28 -7.5 59t-34.5 31t-34 -45t-7 -89v-738q0 -164 -65.5 -285.5t-186 -188t-286.5 -66.5z" />
    <glyph glyph-name="lozenge" unicode="&#x25ca;" horiz-adv-x="1415" 
d="M328 1l-286 772l286 763h746l300 -763l-300 -772h-746zM706 303l136 470l-136 461l-135 -461z" />
    <glyph glyph-name="uniF8A0" unicode="&#xf8a0;" horiz-adv-x="187" 
 />
    <glyph glyph-name="uniF8FF" unicode="&#xf8ff;" horiz-adv-x="187" 
 />
    <glyph glyph-name="i.loclTRK" horiz-adv-x="978" 
d="M66 0v399l120 23v569l-120 23v394h842v-394l-120 -23v-569l120 -23v-399h-842zM169 1564v512h640v-512h-640z" />
    <glyph glyph-name="periodcentered.loclCAT" horiz-adv-x="495" 
d="M0 560v396h495v-396h-495z" />
    <glyph glyph-name="periodcentered.loclCAT.case" horiz-adv-x="295" 
d="M-250 640v396h495v-396h-495z" />
    </font>
</defs>
</svg>
